<?xml version="1.0" encoding="utf-8" ?>
<svg xmlns="http://www.w3.org/2000/svg" xmlns:xlink="http://www.w3.org/1999/xlink" width="340" height="340">
	<path fill="#F8C94F" transform="scale(0.332031 0.332031)" d="M0 0L1024 0L1024 1024L0 1024L0 0Z"/>
	<path transform="scale(0.332031 0.332031)" d="M445.218 315.383C446.165 315.368 446.898 315.291 447.78 315.71C448.502 316.053 448.4 316.48 448.61 317.19C447.368 322.566 440.878 330.125 437.11 334.174C436.302 334.302 436.02 334.309 435.242 333.963C434.396 333.587 434.546 333.364 434.264 332.553C435.257 327.246 441.955 319.818 445.218 315.383Z"/>
	<path transform="scale(0.332031 0.332031)" d="M540.997 154.746C541.394 154.837 541.879 154.932 542.246 155.095C543.398 155.607 543.608 155.809 543.983 156.921C543.055 162.214 537.789 174.686 534.599 178.949C533.476 178.561 532.807 178.234 531.92 177.438C531.275 173.864 538.807 158.197 540.997 154.746Z"/>
	<path transform="scale(0.332031 0.332031)" d="M542.053 316.228L544.22 316.488C545.951 317.791 547.092 319.62 548.244 321.427C550.837 325.497 557.494 334.757 556.508 339.314C555.624 339.509 554.959 339.494 554.06 339.402C553.224 338.801 552.686 338.282 552.064 337.448C549.207 333.617 541.454 320.713 542.053 316.228Z"/>
	<path transform="scale(0.332031 0.332031)" d="M409.989 194.424C414.903 194.281 429.729 201.666 433.08 205.427C434.218 206.705 433.857 207.331 433.665 208.863C429.658 208.906 413.735 200.665 410.926 197.752C409.793 196.577 410.01 195.922 409.989 194.424Z"/>
	<path transform="scale(0.332031 0.332031)" d="M574.163 260.916C574.425 260.928 574.687 260.937 574.949 260.952C579.223 261.202 598.418 263.717 600.717 266.764C601.234 267.45 600.806 268.59 600.684 269.403C596.563 269.795 578.027 266.456 574.412 264.35C573.728 263.219 574.01 262.159 574.163 260.916Z"/>
	<path transform="scale(0.332031 0.332031)" d="M464.677 148.246C465.478 148.279 466.141 148.406 466.921 148.573C470.425 152.466 475.618 165.537 477.293 170.824C477.892 172.712 478.014 173.368 477.077 175.137L475.609 174.789C474.387 173.717 473.718 172.515 472.97 171.095C470.967 167.289 463.893 153.714 464.137 149.995C464.177 149.386 464.497 148.829 464.677 148.246Z"/>
	<path transform="scale(0.332031 0.332031)" d="M395.546 263.661C402.089 263.232 408.991 263.115 415.53 263.629C417.464 263.781 419.98 263.873 421.305 265.444L421.217 266.316C420.028 267.479 419.748 267.577 418.125 267.989C411.958 267.984 397.948 269.72 392.787 268.076C391.989 267.821 392.231 267.866 391.809 267.025C391.922 266.583 392.072 265.907 392.281 265.515C393.092 263.992 394.044 264.041 395.546 263.661Z"/>
	<path fill="#DE912A" transform="scale(0.332031 0.332031)" d="M615.854 815.271C630.018 819.007 654.968 827.747 662.518 841.075C664.524 844.617 665.17 848.477 664.052 852.423C661.705 860.703 653.195 866.426 646.007 870.237C591.827 898.955 473.204 895.904 415.651 877.895C403.274 874.023 384.915 867.871 378.779 855.471C377.17 852.22 377.004 848.775 378.176 845.342C381.318 836.137 392.894 830.431 401.086 826.646Q407.712 823.536 414.693 821.332C417.49 820.431 420.753 819.787 423.396 818.55C425.536 821.854 427.065 825.786 429.156 829.201C440.103 847.071 457.704 855.517 477.563 860.194C511.836 868.267 562.944 867.467 593.28 848.32C605.389 840.677 612.692 829.085 615.854 815.271Z"/>
	<path fill="#DE912A" transform="scale(0.332031 0.332031)" d="M907.617 748.178C925.37 753.433 962.775 760.767 972.085 777.97C974.008 781.522 974.485 785.487 973.213 789.34C970.203 798.452 959.978 804.464 951.79 808.344C891.712 836.81 770.598 835.103 709.05 812.943C698.608 809.183 681.215 801.715 676.084 791.01C674.317 787.323 673.983 783.637 675.47 779.789C679.428 769.547 692.551 763.419 701.986 759.537C707.475 757.279 716.263 753.609 721.981 752.836C718.559 760.105 715.834 767.35 715.321 775.443C715.027 780.078 715.035 784.7 718.235 788.381C730.462 789.772 743.37 788.945 755.684 788.9L823.381 788.513C843.459 788.355 863.571 788.837 883.656 788.806C893.021 788.792 902.481 789 911.825 788.337C917.717 774.782 912.72 761.136 907.617 748.178Z"/>
	<path fill="#DE912A" transform="scale(0.332031 0.332031)" d="M174.715 740.157C175.236 740.918 175.123 741.143 176.087 741.31C180.747 742.117 187.099 740.698 191.946 740.555C203.322 740.219 214.862 740.32 226.24 740.628L228.278 744.012C228.055 749.778 227.3 755.011 225.627 760.54C225.026 762.525 222.269 769.311 222.787 770.751C222.851 770.929 223.332 771.478 223.497 771.644C228.555 776.71 256.023 783.085 263.972 784.412C269.795 785.384 275.801 786.088 281.713 785.825C289.223 785.491 297.556 783.428 302.801 777.685Q303.35 777.076 303.838 776.417Q304.325 775.757 304.745 775.053Q305.166 774.35 305.515 773.608Q305.865 772.866 306.14 772.094Q306.416 771.322 306.615 770.526Q306.813 769.731 306.933 768.92Q307.053 768.109 307.094 767.29Q307.134 766.471 307.094 765.652C306.946 762.35 305.408 759.67 302.876 757.588C300.775 755.859 297.931 754.622 295.525 753.345C305.548 753.358 324.282 761.858 332.356 768.357C336.828 771.957 341.465 776.953 341.887 782.947C342.198 787.353 340.108 791.595 337.177 794.768C332.488 799.846 325.718 803.229 319.54 806.093C286.554 821.386 242.948 826.251 206.959 827.15C167.229 828.144 121.423 824.752 83.774 811.587C75.1215 808.561 65.7222 804.956 59.0196 798.476C55.2598 794.842 52.2549 790.09 52.3082 784.7C52.3578 779.677 55.2388 775.443 58.7694 772.104C70.4145 761.09 87.9642 755.846 102.933 751.157C107.394 749.76 113.473 747.485 118.165 747.765C118.463 747.783 118.76 747.817 119.058 747.842C109.883 753.715 99.5352 762.979 95.2953 773.232C96.2458 776.236 97.4176 778.844 99.6151 781.157C105.879 787.747 115.824 789.027 124.463 789.115C138.814 789.261 168.127 782.574 178.669 772.296C175.645 762.709 173.25 755.048 172.351 744.918L174.715 740.157Z"/>
	<path transform="scale(0.332031 0.332031)" d="M122.47 277.327C151.572 278.913 180.709 279.406 209.827 280.57L278.857 283.009C296.138 283.619 313.472 284.452 330.76 284.602C336.068 292.012 344.138 297.065 349.604 304.487L294.96 538.663C300.412 553.144 307.079 566.696 321.973 573.312C324.974 574.646 328.166 575.465 331.327 576.322C333.227 566.77 336.218 564.633 343.235 558.704C344.206 555.108 344.737 551.674 344.772 547.942C344.806 544.392 342.064 530.142 344.968 528.328C346.419 527.422 348.098 527.561 349.686 527.997C355.069 529.476 360.034 534.659 362.504 539.499C366.511 547.35 365.615 555.709 364.384 564.113C371.816 567.129 386.48 571.268 389.662 579.423C390.693 582.068 390.586 585.639 389.332 588.204C388.23 590.456 385.675 591.558 384.404 593.501C382.741 596.046 385.08 600.836 383.699 603.531C382.295 606.271 379.678 608.631 377.501 610.759C377.677 615.331 376.974 618.997 373.726 622.471C371.326 625.039 367.976 626.118 364.518 626.063C352.603 625.873 342.465 618.04 334.777 609.722C331.084 605.727 327.776 601.139 327.317 595.563C310.613 591.595 297.151 581.713 287.814 567.371L271.787 635.448L265.631 661.878C264.632 666.191 263.333 670.564 262.656 674.935C253.672 675.247 244.742 675.365 235.759 674.918C248.458 687.979 256.008 697.136 255.832 716.252Q255.766 720.885 255.423 725.505C259.573 725.691 268.025 725.118 271.019 728.328C272.259 729.656 272.478 731.685 272.152 733.402C271.709 735.731 270.432 738.018 269.385 740.133C273.832 742.205 278.362 744.16 282.701 746.451C286.946 748.692 291.163 751.392 295.525 753.345C297.931 754.622 300.775 755.859 302.876 757.588C305.408 759.67 306.946 762.35 307.094 765.652Q307.134 766.471 307.094 767.29Q307.053 768.109 306.933 768.92Q306.813 769.731 306.615 770.526Q306.416 771.322 306.14 772.094Q305.865 772.866 305.515 773.608Q305.166 774.35 304.745 775.053Q304.325 775.757 303.837 776.417Q303.35 777.076 302.801 777.685C297.556 783.428 289.223 785.491 281.713 785.825C275.801 786.088 269.795 785.384 263.972 784.412C256.023 783.085 228.555 776.71 223.497 771.644C223.332 771.478 222.851 770.929 222.787 770.751C222.269 769.311 225.026 762.525 225.627 760.54C227.3 755.011 228.055 749.778 228.278 744.012L226.24 740.628C214.862 740.32 203.322 740.219 191.946 740.555C187.099 740.698 180.747 742.117 176.087 741.31C175.123 741.143 175.236 740.918 174.715 740.157L172.351 744.918C173.25 755.048 175.645 762.709 178.669 772.296C168.127 782.574 138.814 789.261 124.463 789.115C115.824 789.027 105.879 787.747 99.6151 781.157C97.4176 778.844 96.2458 776.236 95.2953 773.232C99.5352 762.979 109.883 753.715 119.058 747.842C123.287 746.056 127.499 744.173 131.803 742.575C130.912 739.127 129.163 734.604 131.302 731.302C133.686 727.618 141.409 726.966 145.454 726.148C147.412 709.537 147.171 691.893 147.08 675.171C116.566 675.827 86.0423 674.492 55.5393 674.93C48.2556 667.416 43.724 657.353 37.5017 648.993Q44.4469 622.274 50.1705 595.267C52.2539 585.893 54.8513 576.31 56.2329 566.821C52.0053 563.09 50.3115 560.393 49.2287 554.78L49.063 553.947C39.3823 550.011 29.5501 545.031 25.4028 534.725C22.6368 527.852 23.933 520.662 26.9353 514.132C34.2738 498.172 52.4843 484.94 66.8684 475.317C71.1069 472.481 75.6929 470.031 79.7951 467.023C82.1455 460.217 83.2762 452.697 84.8121 445.643L93.0659 408.306L122.47 277.327Z"/>
	<path fill="#DE912A" transform="scale(0.332031 0.332031)" d="M94.0775 515.415C95.0328 515.419 94.5789 515.27 95.3897 515.992C95.468 517.488 95.483 517.839 94.8442 519.177C93.4666 520.141 93.1754 519.805 91.5713 519.526C90.432 519.279 89.6858 519.181 88.8279 518.355C89.7019 516.877 92.4766 516.133 94.0775 515.415Z"/>
	<path fill="#FDFDFC" transform="scale(0.332031 0.332031)" d="M57.7104 531.901C57.9944 532.187 58.0041 532.121 58.0933 532.556C58.6374 535.21 56.7017 541.991 56.3237 545.042C55.9204 548.298 57.0497 558.468 55.7272 560.604C55.5799 560.31 55.4283 560.017 55.2853 559.72C51.3879 551.634 54.7915 539.788 57.7104 531.901Z"/>
	<path fill="#5388AB" transform="scale(0.332031 0.332031)" d="M347.724 560.156C350.248 563.299 351.7 564.62 355.749 565.073C356.072 565.109 356.395 565.139 356.718 565.171C355.676 566.88 354.67 568.549 353.831 570.368C351.264 568.686 344.345 570.063 341.33 570.695C339.811 571.014 338.406 571.394 336.975 571.989C339.328 566.985 344.032 564.115 347.724 560.156Z"/>
	<path fill="#FDFDFC" transform="scale(0.332031 0.332031)" d="M93.1562 499.918C93.7616 500.128 93.3891 499.944 94.1013 500.73Q93.9877 502.419 93.7816 504.099C92.9303 510.552 88.6574 512.391 83.9192 515.978C81.0928 515.474 78.2407 515.215 75.3861 514.926C74.9299 515.009 74.5016 514.912 74.0442 514.858L74.1933 513.772C78.7375 507.857 86.356 502.86 93.1562 499.918Z"/>
	<path fill="#DBAF79" transform="scale(0.332031 0.332031)" d="M265.529 286.951C270.633 286.997 275.745 286.963 280.832 287.438L284.083 288.238C284.288 290.913 284.224 293.552 284.702 296.198L284.224 297.335L283.443 297.425C282.253 297.573 281.56 297.607 280.559 298.282Q265.987 297.756 251.41 297.415C255.033 296.577 258.808 297.638 262.341 296.843C263.795 296.515 264.252 295.979 265.101 294.817C265.359 292.664 265.621 290.177 264.327 288.31C262.358 287.009 258.384 287.388 256.024 287.296C259.199 287.237 262.36 287.164 265.529 286.951Z"/>
	<path fill="#FDFDFC" transform="scale(0.332031 0.332031)" d="M65.5327 572.244C76.2648 573.56 86.7433 573.633 97.5294 573.429C97.2402 575.607 96.8926 577.547 96.1194 579.609C93.9824 580.595 91.7039 581.051 89.3659 581.244C82.7356 581.793 71.4218 581.863 66.1446 577.388C65.2693 575.863 65.5125 573.957 65.5327 572.244Z"/>
	<path fill="#FDFDFC" transform="scale(0.332031 0.332031)" d="M134.57 733.687C142.657 734.777 149.957 740.408 158.607 739.374C162.257 738.937 165.817 736.798 169.558 736.225L170.346 736.822C170.613 738.468 169.868 739.844 169.275 741.342C168.658 742.688 168.165 743.636 166.776 744.314C159.595 747.824 144.185 744.332 136.975 741.609C135.21 738.767 134.21 737.083 134.57 733.687Z"/>
	<path fill="#FDFDFC" transform="scale(0.332031 0.332031)" d="M254.782 729.751C259.415 729.852 263.991 730.155 268.607 730.542C267.746 733.725 266.469 736.877 265.372 739.992C255.222 741.555 245.471 743.281 235.161 742.413C234.33 742.204 233.481 741.919 232.719 741.524C229.663 739.94 228.708 735.976 227.732 732.963C230.036 731.781 232.455 730.95 234.885 730.071L235.003 736.274C240.422 737.191 248.722 737.368 253.737 734.883C254.8 733.33 254.637 731.6 254.782 729.751Z"/>
	<path fill="#FDFDFC" transform="scale(0.332031 0.332031)" d="M347.724 560.156C347.243 556.674 349.058 552.688 349.19 549.072C349.347 544.772 347.755 534.338 348.2 532.173C349.81 532.05 351.524 533.059 352.722 534.073C358.643 539.083 361.049 546.807 361.372 554.272C361.533 557.983 361.384 561.058 359.687 564.438C358.641 565.039 357.912 565.101 356.718 565.171C356.395 565.139 356.072 565.109 355.749 565.073C351.7 564.62 350.248 563.299 347.724 560.156Z"/>
	<path fill="#FDFDFC" transform="scale(0.332031 0.332031)" d="M172.582 768.516C173.054 768.764 173.328 769.242 173.658 769.654C173.654 770.388 173.833 770.731 173.289 771.307C168.779 776.074 145.481 782.466 138.641 783.7Q132.477 784.796 126.217 784.724C117.344 784.669 108.29 783.653 101.749 777.054C101.634 776.89 101.509 776.731 101.402 776.561C100.623 775.318 100.146 774.082 100.433 772.649C103.067 772.814 107.246 776.493 109.955 777.616C127.077 784.717 156.3 775.408 172.582 768.516Z"/>
	<path fill="#FDFDFC" transform="scale(0.332031 0.332031)" d="M227.61 766.765C236.424 768.1 245.378 771.413 254.163 773.355C267.009 776.195 282.754 779.25 295.165 773.181C297.732 771.926 299.45 769.211 301.881 767.66C302.524 768.766 301.995 770.143 301.811 771.395C301.24 772.447 300.676 773.425 299.87 774.319C295.579 779.079 287.403 781.136 281.191 781.48C266.394 782.302 248.507 777.315 234.556 772.314C232.759 771.67 229.174 770.707 227.854 769.326C227.382 768.833 227.608 767.446 227.61 766.765Z"/>
	<path fill="#FDFDFC" transform="scale(0.332031 0.332031)" d="M347.153 600.251C354.991 603.204 363.835 605.768 371.042 610.048C372.008 611.725 373.147 613.49 372.859 615.522C372.549 617.716 370.785 619.096 369.251 620.491C368.438 620.834 367.603 621.185 366.743 621.389C362.399 622.417 353.771 618.71 350.072 616.407C347.326 614.697 345.168 612.48 344.492 609.228C343.783 605.819 345.418 603.043 347.153 600.251Z"/>
	<path fill="#FDFDFC" transform="scale(0.332031 0.332031)" d="M353.081 585.405C353.26 585.396 353.44 585.379 353.619 585.38C359.288 585.42 373.71 590.249 377.684 594.408C379.03 595.818 379.858 597.58 379.759 599.556C379.598 602.738 377.377 605.198 375.127 607.196C374.556 607.186 351.646 596.986 349.92 595.905C349.665 595.157 349.518 594.465 349.467 593.674C349.266 590.565 351.172 587.671 353.081 585.405Z"/>
	<path fill="#FDFDFC" transform="scale(0.332031 0.332031)" d="M361.092 567.517C367.844 569.732 379.122 573.267 384.035 578.416C385.431 579.878 386.329 581.71 386.158 583.769C385.899 586.872 383.52 588.735 381.353 590.63C378.169 589.847 359.336 581.493 356.917 579.745C355.844 577.327 357.182 573.579 357.777 571.093L361.092 567.517Z"/>
	<path fill="#FDFDFC" transform="scale(0.332031 0.332031)" d="M336.975 571.989C338.406 571.394 339.811 571.014 341.33 570.695C344.345 570.063 351.264 568.686 353.831 570.368L353.685 570.987C353.06 573.735 353.507 579.635 352.986 581.194C352.6 582.348 348.329 584.32 347.368 585.988C344.744 590.541 346.962 595.347 342.856 599.317C341.467 602.628 340.7 605.677 340.391 609.23C337.82 606.706 334.877 604.095 333.254 600.825C332.457 599.221 331.776 597.095 332.37 595.344C333.676 595.04 339.965 597.954 342.356 598.477C340.349 596.74 338.409 595.083 337.114 592.713C333.849 586.738 335.209 578.273 336.975 571.989Z"/>
	<path fill="#F8C94F" transform="scale(0.332031 0.332031)" d="M73.9902 493.068L74.2263 493.371C74.5816 499.083 71.5582 507.881 69.5724 513.288C59.4177 519.621 62.4132 523.797 58.1151 527.223C57.5819 527.648 56.3003 527.377 55.6206 527.346C54.0841 528.105 53.3191 530.66 52.206 532.061C50.7512 531.711 49.7192 530.781 48.5131 529.924C47.6879 529.116 46.9041 528.254 46.2618 527.29C45.257 525.781 45.1414 524.069 45.5065 522.327C47.6364 512.162 65.6907 498.862 73.9902 493.068Z"/>
	<defs>
		<linearGradient id="gradient_0" gradientUnits="userSpaceOnUse" x1="284.41986" y1="294.28439" x2="337.31479" y2="292.72345">
			<stop offset="0" stop-color="#BEA491"/>
			<stop offset="1" stop-color="#F6DBC8"/>
		</linearGradient>
	</defs>
	<path fill="url(#gradient_0)" transform="scale(0.332031 0.332031)" d="M280.832 287.438C296.77 287.456 312.94 288.016 328.852 288.943C332.84 292.765 336.646 296.789 340.673 300.566C320.695 298.691 300.575 299.337 280.559 298.282C281.56 297.607 282.253 297.573 283.443 297.425L284.224 297.335L284.702 296.198C284.224 293.552 284.288 290.913 284.083 288.238L280.832 287.438Z"/>
	<path fill="#3077AC" transform="scale(0.332031 0.332031)" d="M292.848 546.922C294.744 549.179 295.997 553.009 297.408 555.676C298.704 558.128 300.393 560.449 302.087 562.642C309.287 571.96 319.164 579.325 331.081 580.837C330.911 583.898 331.925 588.737 330.175 591.32L328.085 591.702Q325.747 591.101 323.453 590.347Q322.072 589.886 320.715 589.359Q319.358 588.831 318.028 588.239Q316.699 587.646 315.399 586.989Q314.1 586.333 312.834 585.614Q311.568 584.895 310.339 584.115Q309.109 583.335 307.919 582.497Q306.729 581.658 305.581 580.763Q304.433 579.867 303.33 578.917Q302.227 577.967 301.172 576.964Q300.116 575.962 299.11 574.909Q298.105 573.856 297.152 572.756Q296.198 571.655 295.3 570.51Q294.401 569.364 293.559 568.177Q292.718 566.989 291.934 565.762Q291.151 564.534 290.429 563.27Q289.706 562.006 289.046 560.709L292.848 546.922Z"/>
	<path fill="#3077AC" transform="scale(0.332031 0.332031)" d="M151.107 674.996L161.06 675.02C161.528 694.304 161.741 716.483 158.69 735.518C155.484 735.528 152.292 735.192 149.099 734.926C149.466 726.52 150.308 718.135 150.684 709.724Q151.36 692.366 151.107 674.996Z"/>
	<path fill="#3077AC" transform="scale(0.332031 0.332031)" d="M215.183 674.625L228.876 674.663C234.285 678.545 240.062 684.665 244.078 690.004C253.608 702.673 252.332 717.586 250.258 732.424Q244.81 733.17 239.333 733.659C240.103 728.021 240.549 721.995 240.487 716.308C240.287 697.944 227.439 686.567 215.183 674.625Z"/>
	<defs>
		<linearGradient id="gradient_1" gradientUnits="userSpaceOnUse" x1="54.116276" y1="601.38196" x2="93.788666" y2="664.27124">
			<stop offset="0" stop-color="#DC5E00"/>
			<stop offset="1" stop-color="#AD8753"/>
		</linearGradient>
	</defs>
	<path fill="url(#gradient_1)" transform="scale(0.332031 0.332031)" d="M77.324 585.302L83.5251 585.703C81.0121 593.049 79.8381 601.04 77.9777 608.591C75.7115 617.79 72.1245 627.653 71.1743 637.071C70.9361 639.431 70.5064 642.5 72.2181 644.403C73.6322 645.975 75.5896 646.594 77.6236 646.857C85.2483 647.844 93.7381 647.006 101.45 647.032L146.707 647.135C155.287 647.155 163.992 646.906 172.556 647.417L171.992 647.473C165.131 648.097 157.932 647.701 151.033 647.698Q131.272 647.723 111.511 647.548C104.016 647.484 96.1034 646.946 88.6731 647.985C83.8196 654.055 86.7409 663.438 86.2187 670.511Q72.3886 670.61 58.5585 670.508C61.8247 658.739 63.5698 646.456 66.2822 634.54C70.0253 618.096 74.4815 601.963 77.324 585.302Z"/>
	<path fill="#47A8E3" transform="scale(0.332031 0.332031)" d="M146.849 306.862C153.009 306.97 159.256 307.226 165.391 307.792C164.919 308.264 164.666 308.631 164.496 309.284C162.888 315.461 153.826 354.142 153.978 358.017C154.013 358.921 154.145 359.174 154.822 359.686C146.373 362.12 140.116 364.184 132.481 368.835C135.196 357.115 138.222 345.464 140.891 333.736C142.929 324.783 144.617 315.774 146.849 306.862Z"/>
	<path fill="#3077AC" transform="scale(0.332031 0.332031)" d="M78.7098 472.462C79.3185 475.426 76.6017 483.828 75.8468 487.132C64.7913 494.454 49.2488 504.911 42.7934 516.73C40.9352 520.132 40.119 524.025 41.2871 527.804C42.6403 532.181 47.4192 534.114 51.1291 536.112C51.8235 538.342 49.416 547.265 49.2804 550.471L43.1528 547.51C38.5582 544.728 34.3317 541.738 31.2537 537.236C28.1968 532.765 27.2447 527.798 28.3971 522.515C32.9801 501.502 61.6279 483.55 78.7098 472.462Z"/>
	<path fill="#283E51" transform="scale(0.332031 0.332031)" d="M60.6971 571.419C61.3421 573.913 61.842 577.304 63.2545 579.462C65.3116 582.605 68.8675 583.09 72.2504 583.922C70.7922 597.017 66.9946 610.372 63.9655 623.175C60.4974 637.834 57.4756 652.399 54.7219 667.21C50.8265 663.529 45.7748 653.991 43.247 649.071C44.3315 639.196 47.335 628.992 49.5489 619.266C53.181 603.311 56.6318 587.269 60.6971 571.419Z"/>
	<path fill="#FA8C06" transform="scale(0.332031 0.332031)" d="M139.801 298.072C146.014 298.884 152.476 298.751 158.746 298.96Q178.951 299.636 199.163 300.053C206.292 300.25 213.591 300.164 220.681 300.925L215.96 301.371L218.157 302.029C218.011 303.053 217.676 303.409 216.733 303.943C214.965 304.945 212.346 304.065 210.252 304.963C202.822 305.32 195.151 304.695 187.72 304.419C173.103 303.877 158.47 303.154 143.845 302.975C139.66 316.391 137.329 330.74 134.13 344.438L109.799 453.111C106.732 466.471 104.048 482.389 99.7583 495.115C98.087 495.778 95.8809 495.576 94.0778 495.634C104.276 456.744 112.164 417.381 121.195 378.217L132.628 329.316C135.103 318.944 137.994 308.581 139.801 298.072Z"/>
	<path fill="#FDFDFC" transform="scale(0.332031 0.332031)" d="M135.53 745.527C145.477 749.669 157.797 749.779 168.263 748.114C169.162 753.634 170.477 759.09 171.69 764.548C162.406 769.168 151.174 771.624 141.128 774.132C133.536 775.501 125.473 776.243 117.797 775.116C114.309 774.604 107.182 773.48 105.29 770.248C104.621 769.105 104.754 767.981 105.195 766.794C108.478 757.956 127.209 748.678 135.53 745.527Z"/>
	<path fill="#FDFDFC" transform="scale(0.332031 0.332031)" d="M264.8 743.695C271.47 742.354 292.617 757.976 299.973 761.089L299.767 761.527C298.508 764.263 297.368 766.243 294.941 768.099C286.982 774.186 274.388 772.755 265.114 771.545C253.058 769.703 241.139 766.02 229.363 762.906C230.866 757.486 231.533 751.888 232.241 746.323C243.687 747.35 253.581 745.294 264.8 743.695Z"/>
	<path fill="#8C6F5A" transform="scale(0.332031 0.332031)" d="M128.323 281.991C159.591 282.17 191.086 283.95 222.334 285.322C236.584 285.948 251.409 285.306 265.529 286.951C262.36 287.164 259.199 287.237 256.024 287.296C258.384 287.388 262.358 287.009 264.327 288.31C265.621 290.177 265.359 292.664 265.101 294.817C264.252 295.979 263.795 296.515 262.341 296.843C258.808 297.638 255.033 296.577 251.41 297.415C246.932 297.859 242.111 297.38 237.615 297.219C227.321 296.852 217.04 296.219 206.749 295.791C184.406 294.862 162.03 294.843 139.695 293.682C135.695 290.11 132.039 285.876 128.323 281.991Z"/>
	<path fill="#FDFDFC" transform="scale(0.332031 0.332031)" d="M73.0235 518.596C73.8458 518.543 74.6715 518.498 75.4959 518.543C80.3433 518.813 86.4736 522.061 91.2814 523.378C96.7867 524.887 102.586 525.654 107.998 527.421C109.219 527.819 110.192 528.103 111.052 529.105C111.419 530.118 111.647 530.868 111.511 531.956C111.207 534.386 109.65 537.538 107.662 539.013C104.141 541.626 87.0588 537.18 81.9691 536.632C80.9258 537.406 81.0522 537.489 80.8104 538.788C83.5053 541.861 101.71 541.3 107.065 545.543C108.068 546.338 108.816 547.371 108.831 548.701C108.85 550.391 107.452 552.286 106.179 553.31C101.366 557.186 89.0087 554.866 83.118 554.392C80.7758 554.029 77.541 553.056 75.2837 553.965C74.9025 555.082 74.9884 555.066 75.449 556.171C81.3303 559.125 96.1477 558.48 103.202 559.051C103.929 559.487 104.384 559.794 104.783 560.585C105.499 562 105.465 563.698 104.966 565.175C104.392 566.874 102.705 568.292 101.108 569.022C95.764 571.464 74.1068 569.745 67.9224 568.661C65.4142 568.221 62.975 567.413 60.5596 566.621C58.8765 554.073 59.2558 541.405 63.7966 529.451C65.6881 524.472 68.0722 520.838 73.0235 518.596Z"/>
	<path fill="#283E51" transform="scale(0.332031 0.332031)" d="M125.308 283.779C128.757 286.292 132.705 292.929 136.082 296.386C134.36 305.653 131.669 314.735 129.352 323.866Q123.987 345.376 119.065 366.992C109.435 410.337 101.397 454.246 89.1723 496.952L82.4499 501.859C80.0402 503.785 78.0241 505.773 75.9935 508.094C81.7526 485.014 85.5966 461.248 90.7525 437.997L125.308 283.779Z"/>
	<path fill="#F8C94F" transform="scale(0.332031 0.332031)" d="M164.524 675.011L209.417 675.028C220.658 685.035 235.451 697.883 236.394 713.905C236.624 717.797 236.2 721.742 235.831 725.616C232.257 726.517 226.32 727.255 224.366 730.874C223.57 732.348 223.549 734.252 224.043 735.828C224.559 737.475 225.466 739.088 226.24 740.628C214.862 740.32 203.322 740.219 191.946 740.555C187.099 740.698 180.747 742.117 176.087 741.31C175.123 741.143 175.236 740.918 174.715 740.157C175.282 737.542 175.645 735.525 174.177 733.143C172.093 729.761 167.629 728.473 164.088 727.221C164.842 709.785 165.338 692.455 164.524 675.011Z"/>
	<defs>
		<linearGradient id="gradient_2" gradientUnits="userSpaceOnUse" x1="147.67551" y1="465.34286" x2="308.63068" y2="518.10895">
			<stop offset="0" stop-color="#C38F3A"/>
			<stop offset="1" stop-color="#FBE09E"/>
		</linearGradient>
	</defs>
	<path fill="url(#gradient_2)" transform="scale(0.332031 0.332031)" d="M220.681 300.925C239.893 300.995 259.203 301.943 278.412 302.514C300.719 303.176 323.005 303.527 345.287 304.858Q317.475 427.01 288.076 548.789L276.014 598.92C274.745 604.214 273.303 613.723 271.203 618.368C267.986 635.667 263.58 653.228 259.202 670.274Q240.013 670.594 220.822 670.495C212.154 670.523 203.409 670.819 194.75 670.473C184.448 670.962 173.947 670.592 163.617 670.659Q124.917 671.024 86.2187 670.511C86.7409 663.438 83.8196 654.055 88.6731 647.985C96.1034 646.946 104.016 647.484 111.511 647.548Q131.272 647.723 151.033 647.698C157.932 647.701 165.131 648.097 171.992 647.473L172.556 647.417C180.418 647.187 188.795 646.846 196.635 647.442C209.012 645.48 246.13 650.357 254.768 645.273C256.033 644.528 257.177 643.56 257.961 642.305C261.034 637.385 263.46 622.113 265.171 615.576C266.696 607.641 268.887 599.815 270.73 591.947Q276.966 564.788 283.63 537.731L315.579 402.672L328.397 348.916C331.522 335.893 335.482 322.462 336.786 309.115C325.017 307.361 309.059 307.772 296.962 307.418Q253.601 306.408 210.252 304.963C212.346 304.065 214.965 304.945 216.733 303.943C217.676 303.409 218.011 303.053 218.157 302.029L215.96 301.371L220.681 300.925Z"/>
	<path fill="#7ECDF8" transform="scale(0.332031 0.332031)" d="M165.391 307.792L282.934 311.41C299.251 311.946 315.633 312.094 331.93 312.999Q326.911 337.866 320.722 362.469C309.876 368.484 296.993 372.139 284.755 368.64C276.195 366.192 268.672 361.106 259.793 359.62C239.352 356.198 224.424 373.59 204.511 372.508C189.555 371.696 177.939 361.504 163.604 359.58C160.717 359.192 157.717 359.5 154.822 359.686C154.145 359.174 154.013 358.921 153.978 358.017C153.826 354.142 162.888 315.461 164.496 309.284C164.666 308.631 164.919 308.264 165.391 307.792Z"/>
	<path fill="#19A266" transform="scale(0.332031 0.332031)" d="M132.205 373.674C138.874 368.898 144.898 365.77 152.862 363.771C147.249 386.251 143.216 409.188 138.126 431.804C134.193 449.274 129.397 466.559 126.928 484.326C121.82 521.082 131.607 554.223 150.44 585.532C157.117 596.633 164.391 607.003 172.95 616.743C176.241 620.489 198.987 642.509 199.239 643.028L117.044 642.998L91.2157 642.985C87.1229 642.984 82.7577 643.309 78.7068 642.907C77.1798 642.755 76.6549 642.413 75.5418 641.384C73.9899 636.499 85.632 593.216 87.8484 585.769C91.343 585.061 95.4727 584.404 98.2414 582.005C101.124 579.508 101.367 576.385 101.708 572.846C104.267 571.306 107.341 569.591 108.617 566.742C110.129 563.366 108.774 560.262 107.61 557.041C110.015 555.184 111.996 552.985 112.672 549.925C113.012 548.39 112.573 547.435 111.786 546.183L111.463 545.679C110.884 544.754 109.888 543.579 110.272 542.406C111.113 539.834 113.963 538.736 114.968 533.597C115.403 531.369 115.121 529.049 113.734 527.199C110.455 522.825 103.819 522.47 98.886 521.767C99.6269 514.258 102.447 511.674 103.502 505.882C103.991 503.199 102.907 500.339 103.34 497.638C103.969 493.714 105.369 489.723 106.296 485.843L113.747 454.26C119.805 427.443 124.919 400.192 132.205 373.674Z"/>
	<path fill="#3EB370" transform="scale(0.332031 0.332031)" d="M152.862 363.771C173.962 360.983 183.838 375.057 203.442 376.368C222.446 377.638 234.115 364.558 250.659 363.146C256.824 362.619 262.655 363.877 268.349 366.186C272.603 367.912 276.752 370.017 281.087 371.528C294.69 376.267 306.933 372.686 319.788 367.366Q302.062 444.169 283.403 520.751Q274.14 560.923 264.471 600.999C261.814 611.902 259.382 622.946 256.384 633.756C255.631 636.472 254.503 640.305 252.543 642.345C246.709 644.224 207.495 643.021 199.239 643.028C198.987 642.509 176.241 620.489 172.95 616.743C164.391 607.003 157.117 596.633 150.44 585.532C131.607 554.223 121.82 521.082 126.928 484.326C129.397 466.559 134.193 449.274 138.126 431.804C143.216 409.188 147.249 386.251 152.862 363.771Z"/>
	<path fill="#FDFDFC" transform="scale(0.332031 0.332031)" d="M239.593 468.005C242.543 468.185 244.962 469.286 246.905 471.57C249.947 475.145 250.776 480.478 250.216 485.014C249.7 489.197 247.883 493.583 244.436 496.184C242.958 497.299 240.696 498.386 238.82 498.306L238.503 497.855C241.67 496.675 243.964 495.363 245.799 492.411C248.458 488.133 248.825 482.5 247.479 477.717C246.184 473.119 243.684 470.311 239.593 468.005Z"/>
	<path transform="scale(0.332031 0.332031)" d="M232.586 447.549C238.224 447.306 242.126 448.562 246.662 452.138C249.158 454.106 253.215 457.88 253.118 461.408C253.079 462.823 252.526 463.236 251.589 464.126C248.726 464.962 246.273 463.702 243.612 462.735C241.231 461.68 238.789 460.538 236.327 459.694C233.829 458.837 232.545 458.875 230.18 460.1C228.944 460.74 227.839 461.266 226.518 461.699C225.285 461.448 225.022 461.439 224.356 460.249C223.439 458.614 223.797 456.274 224.456 454.622C225.94 450.902 229.15 449.105 232.586 447.549Z"/>
	<path transform="scale(0.332031 0.332031)" d="M162.506 447.56C166.422 447.446 169.858 448.687 172.884 451.182C174.867 452.817 177.837 456.27 177.718 459.058C177.653 460.58 177.413 460.793 176.369 461.755C172.893 462.336 169.726 459.023 166.932 457.144C164.363 457.851 161.995 458.867 159.558 459.923C155.649 462.062 152.102 466.222 147.473 466.423C146.42 465.992 145.847 465.835 145.349 464.699C144.535 462.84 145.51 460.177 146.427 458.528C149.693 452.657 156.239 449.219 162.506 447.56Z"/>
	<path transform="scale(0.332031 0.332031)" d="M238.503 497.855C234.104 497.401 231.202 496.596 228.235 493.086C224.884 489.12 223.842 483.465 224.366 478.409C224.716 475.029 225.974 471.461 228.764 469.33C232.117 466.769 235.706 467.353 239.593 468.005C243.684 470.311 246.184 473.119 247.479 477.717C248.825 482.5 248.458 488.133 245.799 492.411C243.964 495.363 241.67 496.675 238.503 497.855Z"/>
	<path fill="#FDFDFC" transform="scale(0.332031 0.332031)" d="M230.449 471.872C232.024 471.879 233.527 471.859 234.809 472.927C235.772 473.729 236.287 474.697 236.288 475.963C236.288 477.566 235.209 478.666 234.203 479.758C232.266 479.757 230.292 479.584 228.982 477.953C228.209 476.991 227.722 476.016 227.964 474.739C228.254 473.211 229.318 472.699 230.449 471.872Z"/>
	<path transform="scale(0.332031 0.332031)" d="M167.555 467.137C169.31 467.312 170.758 467.615 172.29 468.541C175.784 470.657 177.912 473.821 178.815 477.786C179.861 482.381 179.311 487.516 176.664 491.492C174.201 495.192 171.199 496.634 166.972 497.582C165.205 497.267 163.466 496.764 161.919 495.827C158.204 493.577 155.83 489.752 155.014 485.532C154.182 481.229 154.865 476.693 157.455 473.092C159.989 469.569 163.34 467.795 167.555 467.137Z"/>
	<path fill="#FDFDFC" transform="scale(0.332031 0.332031)" d="M174.116 477.608C175.131 477.973 175.535 478.392 176.239 479.198C176.592 480.807 176.041 481.708 175.367 483.115C174.432 482.884 173.751 482.638 172.924 482.143C172.553 480.34 173.393 479.271 174.116 477.608Z"/>
	<path fill="#FDFDFC" transform="scale(0.332031 0.332031)" d="M161.929 470.338C163.332 470.43 165.006 470.747 166.223 471.489C167.469 472.248 168.546 473.531 168.679 475.031C168.855 477.008 167.853 478.501 166.598 479.881C165.314 479.892 163.661 479.703 162.502 479.125C161.142 478.446 160.309 477.295 159.993 475.829C159.542 473.74 160.737 471.907 161.929 470.338Z"/>
	<path transform="scale(0.332031 0.332031)" d="M194.644 512.268C210.23 511.659 225.913 511.956 241.512 511.963Q241.544 514.104 241.355 516.236Q241.165 518.368 240.754 520.469Q240.344 522.571 239.718 524.618Q239.091 526.665 238.256 528.636C234.088 538.54 226.699 545.668 216.803 549.648C209.263 551.578 201.553 551.812 194.226 548.887C185.401 545.364 178.976 538.654 175.274 529.978C173.374 525.525 170.589 518.205 172.449 513.52C174.749 511.534 190.645 512.319 194.644 512.268Z"/>
	<path fill="#FA8C06" transform="scale(0.332031 0.332031)" d="M202.165 532.126C202.902 532.053 203.635 532.006 204.376 531.992C213.313 531.819 221.092 532.598 227.904 539.094C223.492 544.185 218.249 546.577 211.808 547.887C201.517 548.908 194.289 546.668 186.117 540.638C190.938 536.02 195.494 533.204 202.165 532.126Z"/>
	<path fill="#8A2A14" transform="scale(0.332031 0.332031)" d="M175.449 515.546C196.293 516.541 217.366 515.742 238.227 515.462C236.494 524.108 234.601 530.577 229.078 537.622C224.346 533.187 219.68 530.795 213.166 530.029C201.556 528.664 193.33 531.271 184.17 538.542C178.369 532.265 175.873 523.945 175.449 515.546Z"/>
	<path transform="scale(0.332031 0.332031)" d="M673.098 138.124C672.729 137.061 672.396 136.154 672.397 135.008C672.398 133.874 673.144 132.815 673.921 132.032C677.587 128.339 684.452 125.088 689.655 124.901C692.392 126.118 694.584 133.649 695.757 136.518L694.438 140.896C700.79 156.021 707.791 170.864 714.437 185.86C724.361 208.257 734.057 230.918 743.48 253.528C758.149 251.933 773.17 251.864 787.909 251.147C805.067 250.311 822.226 248.934 839.382 248.233C849.724 274.904 860.824 301.3 871.239 327.942Q879.038 348.456 886.538 369.081Q890.984 371.485 895.27 374.162C903.66 379.5 911.692 385.633 919.786 391.418C949.312 412.522 981.239 437.304 989.404 474.757C996.604 507.786 979.79 538.761 962.478 565.561C965.978 570.796 970.038 576.128 969.958 582.755C969.936 584.541 969.202 586.774 969.688 588.505C971.076 593.442 973.485 598.419 975.354 603.206Q979.782 614.469 983.557 625.968C976.49 636.969 968.966 648.108 960.914 658.402C950.867 658.755 940.694 660.009 930.666 660.861L873.447 665.594C873.452 682.249 874.356 699.541 872.952 716.133C874.303 716.408 875.673 716.674 877 717.047C891.812 721.217 900.673 735.518 907.617 748.178C912.72 761.136 917.717 774.782 911.825 788.337C902.481 789 893.021 788.792 883.656 788.806C863.571 788.837 843.459 788.355 823.381 788.513L755.684 788.9C743.37 788.945 730.462 789.772 718.235 788.381C715.035 784.7 715.027 780.078 715.321 775.443C715.834 767.35 718.559 760.105 721.981 752.836C729.864 738.407 740.311 722.728 756.969 717.768C758.613 717.278 760.305 716.96 761.989 716.649L761.855 669.959C761.802 662.607 762.392 654.54 761.294 647.277C759.915 638.161 753.065 622.336 749.85 613.013Q735.592 570.986 720.846 529.128C715.435 561.166 697.686 592.921 670.948 611.939C655.318 623.056 638.946 630.006 619.894 632.694Q620.677 686.921 620.54 741.154L620.736 776.224C620.779 783.61 621.168 791.288 620.297 798.63C619.617 804.357 617.428 809.757 615.854 815.271C612.692 829.085 605.389 840.677 593.28 848.32C562.944 867.467 511.836 868.267 477.563 860.194C457.704 855.517 440.103 847.071 429.156 829.201C427.065 825.786 425.536 821.854 423.396 818.55C420.93 813.657 418.759 808.438 418.249 802.937C417.208 791.734 418.025 779.946 417.932 768.68L417.398 694.853L415.806 535.151Q415.621 489.349 414.689 443.557C415.164 442.761 415.656 441.959 416.24 441.237C426.157 428.975 458.416 424.616 473.865 422.635C466.354 402.937 460.306 382.251 454.121 362.092C456.613 358.228 459.661 355.801 464.026 354.195C467.102 353.062 470.809 352.551 473.834 354.106C475.244 354.831 476.094 355.652 476.79 357.095C479.979 363.712 481.976 371.604 484.364 378.589Q491.809 399.851 498.888 421.237Q509.35 420.552 519.834 420.436C544.788 420.272 597.714 423.019 615.522 440.929C618.072 443.493 618.467 445.459 618.802 448.972C619.43 455.551 618.902 462.54 618.86 469.167L618.905 502.57L619.476 612.222Q620.543 612.058 621.605 611.869Q622.667 611.68 623.725 611.466Q624.782 611.252 625.834 611.012Q626.886 610.773 627.932 610.509Q628.979 610.244 630.018 609.955Q631.058 609.666 632.09 609.352Q633.122 609.039 634.147 608.7Q635.172 608.362 636.188 607.999Q637.204 607.637 638.211 607.25Q639.219 606.864 640.217 606.453Q641.214 606.043 642.202 605.608Q643.19 605.174 644.167 604.717Q645.144 604.259 646.11 603.779Q647.076 603.298 648.031 602.795Q648.985 602.291 649.927 601.765Q650.869 601.239 651.798 600.691Q652.728 600.142 653.643 599.572Q654.559 599.002 655.462 598.41Q656.364 597.818 657.252 597.205Q658.139 596.591 659.012 595.957Q659.885 595.323 660.743 594.668Q661.6 594.014 662.442 593.339Q663.284 592.664 664.109 591.969Q664.935 591.274 665.744 590.56Q666.552 589.845 667.344 589.112Q668.135 588.379 668.909 587.627Q669.683 586.875 670.439 586.105Q671.194 585.335 671.932 584.547Q672.669 583.759 673.387 582.954Q674.105 582.149 674.804 581.326Q675.503 580.504 676.182 579.666Q676.861 578.827 677.52 577.973C699.444 550.026 707.67 510.263 703.394 475.347C699.963 473.585 697.322 471.729 695.575 468.162C692.841 462.581 694.691 456.997 696.528 451.508C688.893 426.344 679.242 401.86 670.786 376.97Q660.328 345.713 649.152 314.705C646.595 307.488 644.249 296.899 640.167 290.59C642.666 283.752 655.297 264.049 660.149 257.866C681.546 256.415 703.259 254.571 724.696 254.457C721.896 246.297 717.661 238.307 714.331 230.31C703 203.105 690.69 176.264 679.885 148.848C667.436 156.349 655.725 165.662 643.758 173.964Q601.336 203.452 559.222 233.377Q559.825 235.036 560.322 236.73Q560.819 238.425 561.208 240.147Q561.597 241.869 561.877 243.612Q562.156 245.355 562.325 247.113Q562.495 248.87 562.552 250.635Q562.61 252.399 562.557 254.164Q562.504 255.928 562.339 257.686Q562.174 259.444 561.899 261.188C559.247 278.287 549.549 294.94 535.399 305.037C521.79 314.748 503.483 318.716 487.051 315.887Q485.556 315.622 484.076 315.283Q482.595 314.945 481.134 314.534Q479.672 314.123 478.232 313.64Q476.793 313.157 475.378 312.604Q473.964 312.051 472.579 311.429Q471.194 310.807 469.841 310.117Q468.489 309.427 467.172 308.671Q465.854 307.916 464.576 307.096Q463.298 306.276 462.062 305.395Q460.826 304.513 459.634 303.571Q458.443 302.63 457.3 301.63Q456.157 300.631 455.064 299.577Q453.971 298.522 452.932 297.415Q451.893 296.308 450.909 295.151Q449.926 293.994 449.001 292.79Q448.076 291.586 447.211 290.338Q446.281 289.006 445.417 287.63Q444.553 286.254 443.757 284.837Q442.962 283.421 442.237 281.967Q441.512 280.513 440.86 279.025Q440.207 277.537 439.628 276.019Q439.049 274.5 438.546 272.956Q438.042 271.411 437.615 269.843Q437.188 268.276 436.839 266.689Q436.489 265.102 436.218 263.501Q435.946 261.899 435.754 260.285Q435.562 258.672 435.449 257.051Q435.336 255.43 435.303 253.806Q435.269 252.182 435.316 250.558Q435.363 248.934 435.489 247.314Q435.615 245.694 435.821 244.082Q436.026 242.471 436.311 240.871Q436.59 239.352 436.941 237.847Q437.293 236.343 437.717 234.858Q438.141 233.372 438.636 231.909Q439.131 230.445 439.696 229.008Q440.261 227.57 440.895 226.161Q441.528 224.752 442.229 223.376Q442.931 221.999 443.697 220.658Q444.464 219.317 445.294 218.015Q446.125 216.712 447.017 215.451Q447.91 214.19 448.862 212.974Q449.814 211.757 450.824 210.588Q451.834 209.419 452.899 208.3Q453.964 207.181 455.081 206.115Q456.199 205.049 457.367 204.038Q458.535 203.027 459.751 202.073Q460.966 201.12 462.226 200.226C476.681 190.113 492.436 186.572 509.795 189.634C529.038 193.029 542.984 204.437 553.965 220.027C558.679 217.642 563.068 214.122 567.409 211.116L594.998 191.876L644.076 158.382C653.801 151.724 663.687 145.218 673.098 138.124Z"/>
	<path fill="#FDFDFC" transform="scale(0.332031 0.332031)" d="M952.925 604.605C954.384 605.173 955.503 605.532 956.525 606.794C956.815 608.361 956.065 609.459 955.384 610.81C954.11 610.371 953.131 610.046 952.111 609.113C951.77 607.343 952.366 606.298 952.925 604.605Z"/>
	<path fill="#FDFDFC" transform="scale(0.332031 0.332031)" d="M926.627 579.161C928.324 579.705 929.456 580.801 930.794 581.941L927.795 587.549C926.539 586.559 925.235 585.737 924.669 584.212C926.763 582.843 925.16 582.329 926.627 579.161Z"/>
	<path fill="#F46703" transform="scale(0.332031 0.332031)" d="M681.91 133.098C682.889 135.718 683.738 138.535 685.91 140.425C684.695 140.493 683.062 141.182 681.866 141.533C680.29 139.329 678.75 137.427 676.793 135.536C678.47 134.667 680.198 133.894 681.91 133.098Z"/>
	<path fill="#DE912A" transform="scale(0.332031 0.332031)" d="M607.367 574.778C608.731 573.385 613.422 570.1 615.164 569.914L615.195 571.217C614.952 573.225 615.135 575.492 613.696 576.942L609.471 577.85L607.367 574.778Z"/>
	<path fill="#47A8E3" transform="scale(0.332031 0.332031)" d="M506.867 472.393L513.014 472.754C513.563 475.25 514.026 477.799 514.802 480.235C512.22 479.953 509.681 479.685 507.145 479.093L506.867 472.393Z"/>
	<path fill="#98BEC3" transform="scale(0.332031 0.332031)" d="M434.394 827.492C439.652 830.306 445.115 832.724 450.53 835.217C450.292 835.232 450.055 835.259 449.817 835.261C448.655 835.272 449.129 835.292 448.064 834.928C446.893 834.527 445.828 834.597 444.724 835.196C444.161 835.502 444.126 836.028 443.902 836.591C444.075 837.461 443.957 837.673 444.637 838.287C445.476 839.045 446.629 839.799 446.776 841C446.789 841.1 446.782 841.202 446.785 841.302C441.544 838.033 437.676 832.599 434.394 827.492Z"/>
	<path fill="#634820" transform="scale(0.332031 0.332031)" d="M543.752 559.919C547.538 561.892 550.786 563.484 553.506 566.893C550.737 569.35 547.531 571.814 543.679 572.067C543.83 571.816 543.986 571.567 544.133 571.314C546.403 567.422 544.9 563.93 543.752 559.919Z"/>
	<path fill="#F5E2BF" transform="scale(0.332031 0.332031)" d="M681.91 133.098C683.346 132.01 685.148 130.279 687.104 130.642C688.443 130.89 689.465 131.628 690.052 132.883C690.736 134.35 690.645 136.698 689.866 138.125C689.079 139.567 687.365 139.928 685.91 140.425C683.738 138.535 682.889 135.718 681.91 133.098Z"/>
	<path fill="#F8C94F" transform="scale(0.332031 0.332031)" d="M603.371 557.656C607.116 559.404 609.84 561.249 612.594 564.385C610.572 566.916 608.457 568.74 605.816 570.621C604.61 566.477 603.832 561.943 603.371 557.656Z"/>
	<path fill="#FDFDFC" transform="scale(0.332031 0.332031)" d="M874.073 721.161C879.139 722.509 882.802 724.381 886.486 728.215C882.07 728.735 877.736 728.976 873.291 729.052Q873.751 725.113 874.073 721.161Z"/>
	<path fill="#BFC0C1" transform="scale(0.332031 0.332031)" d="M863.905 721.561C867.28 721.286 870.689 720.858 874.073 721.161Q873.751 725.113 873.291 729.052L865.767 729.117C865.708 726.304 864.895 724.139 863.905 721.561Z"/>
	<path fill="#8A2A14" transform="scale(0.332031 0.332031)" d="M518.81 558.411C520.082 562.194 521.845 566.28 522.287 570.246C521.687 570.837 522.081 570.62 521.002 570.661C520.67 571.683 520.784 572.26 521.005 573.3C518.723 572.524 515.823 571.577 514.481 569.413C513.218 567.377 513.732 565.608 514.219 563.419C515.538 563.104 516.371 562.774 517.543 562.037C518.259 560.904 518.344 560.276 518.372 558.944L518.81 558.411Z"/>
	<path fill="#175AA5" transform="scale(0.332031 0.332031)" d="M493.555 470.774Q500.205 471.635 506.867 472.393L507.145 479.093C504.061 478.38 498.125 476.36 495.147 477.378C494.504 475.225 494.074 472.963 493.555 470.774Z"/>
	<path fill="#FDFDFC" transform="scale(0.332031 0.332031)" d="M489.728 459.079C493.916 459.814 497.846 461.445 501.851 462.822C504.72 463.865 507.635 464.843 510.468 465.976C510.874 466.841 511.07 467.586 511.296 468.509C509.323 469.649 495.569 467.162 492.569 466.764C491.702 464.182 490.681 461.632 489.728 459.079Z"/>
	<path fill="#6A8B92" transform="scale(0.332031 0.332031)" d="M746.218 728.341C755.422 721.942 764.057 720.566 775.14 721.331C769.843 722.007 770.2 725.202 765.362 727.828C765.005 728.021 764.672 728.256 764.331 728.476C758.525 729.168 752.074 728.483 746.218 728.341Z"/>
	<path fill="#47A8E3" transform="scale(0.332031 0.332031)" d="M888.4 374.596Q899.782 382.418 911.031 390.432C913.441 392.155 916.634 393.932 918.674 395.988L917.647 397.879C917.545 397.79 917.445 397.699 917.341 397.613C917.167 397.469 916.989 397.331 916.815 397.189C914.54 395.33 907.9 391.415 905.079 391.625C900.585 388.209 895.841 383.799 890.692 381.484C889.56 379.223 888.982 377.033 888.4 374.596Z"/>
	<path fill="#BB9811" transform="scale(0.332031 0.332031)" d="M543.752 559.919L543.882 559.262C553.832 560.538 567.206 561.642 574.113 569.672C566.954 569.537 560.539 567.912 553.506 566.893C550.786 563.484 547.538 561.892 543.752 559.919Z"/>
	<path fill="#BFC0C1" transform="scale(0.332031 0.332031)" d="M775.14 721.331C781.917 721.687 786.745 723.903 791.892 728.26C782.64 728.967 773.595 728.81 764.331 728.476C764.672 728.256 765.005 728.021 765.362 727.828C770.2 725.202 769.843 722.007 775.14 721.331Z"/>
	<path fill="#FDFDFC" transform="scale(0.332031 0.332031)" d="M460.05 365.131C459.419 363.514 459.1 363.279 459.652 361.574C462.245 358.939 465.525 357.549 469.243 357.536C470.348 357.532 471.633 357.684 472.513 358.426C474.965 360.495 475.545 365.345 476.747 368.209C474.892 368.487 472.954 368.908 471.076 368.875C468.125 366.872 463.435 367.024 460.05 365.131Z"/>
	<path fill="#6A8B92" transform="scale(0.332031 0.332031)" d="M840.181 728.917C847.862 723.288 854.411 721.48 863.905 721.561C864.895 724.139 865.708 726.304 865.767 729.117C857.255 729.251 848.697 728.989 840.181 728.917Z"/>
	<path fill="#FDFDFC" transform="scale(0.332031 0.332031)" d="M919.966 552.122C921.67 551.926 923.321 551.812 925.03 552.042C929.98 552.708 933.004 556.055 935.824 559.837C932.21 560.605 929.58 562.932 925.817 563.02C925.623 563.025 925.429 563.019 925.235 563.018L924.979 563.436L925.411 565.153C925.635 565.184 925.857 565.256 926.083 565.246C926.418 565.231 926.745 565.134 927.076 565.078L927.511 566.525L926.902 567.368L925.491 567.536C924.134 567.05 923.208 566.774 922.289 565.584C922.145 564.352 922.382 563.728 922.861 562.596C923.203 562.361 923.381 562.261 923.688 561.921C924.87 560.608 926.612 558.114 926.687 556.342L925.925 555.89C924.297 556.226 922.845 556.694 921.294 557.289C919.964 556.357 919.134 555.653 917.423 555.71C916.126 556.288 915.776 556.211 915.193 557.481C915.777 558.548 916.385 559.576 917.031 560.605L916.492 561.503C915.071 561.893 914.859 562.212 913.582 561.517C913.254 560.487 913.267 559.711 913.558 558.659C914.56 555.042 916.85 553.741 919.966 552.122Z"/>
	<path fill="#76D0C6" transform="scale(0.332031 0.332031)" d="M511.248 525.536C514.699 526.407 518.135 527.276 521.635 527.929C521.906 537.307 526.096 546.606 529.133 555.371C526.404 554.467 523.733 553.513 521.07 552.429Q515.713 539.145 511.248 525.536Z"/>
	<path fill="#3077AC" transform="scale(0.332031 0.332031)" d="M513.541 496.869C515.468 497.34 517.936 498.27 519.858 497.604C523.348 507.901 526.167 518.444 529.764 528.694C527.054 528.551 524.336 528.199 521.635 527.929C518.766 518.699 517.253 504.868 513.541 496.869Z"/>
	<path fill="#47A8E3" transform="scale(0.332031 0.332031)" d="M476.747 368.209Q483.613 386.978 489.808 405.979C487.871 405.999 486.012 405.586 484.117 405.23C480.173 400.09 473.825 376.474 471.076 368.875C472.954 368.908 474.892 368.487 476.747 368.209Z"/>
	<path fill="#175AA5" transform="scale(0.332031 0.332031)" d="M521.07 552.429C523.733 553.513 526.404 554.467 529.133 555.371C531.83 556.051 535.107 557.218 537.864 556.525C539.388 560.559 540.641 564.583 541.523 568.805C536.594 570.982 532.087 571.043 526.81 571.082L521.07 552.429Z"/>
	<path fill="#FDFDFC" transform="scale(0.332031 0.332031)" d="M521.635 527.929C524.336 528.199 527.054 528.551 529.764 528.694Q533.403 542.729 537.864 556.525C535.107 557.218 531.83 556.051 529.133 555.371C526.096 546.606 521.906 537.307 521.635 527.929Z"/>
	<path fill="#BB9811" transform="scale(0.332031 0.332031)" d="M537.487 542.811C554.111 543.668 572.791 546.126 588.42 552.092L588.502 552.404L588.575 556.33C572.871 551.483 555.355 549.761 539.161 547.032C538.525 545.634 537.963 544.271 537.487 542.811Z"/>
	<path fill="#FDFDFC" transform="scale(0.332031 0.332031)" d="M935.686 552.447C938.874 552.391 942.051 552.125 944.867 553.904C953.114 559.113 962.902 573.168 965.136 582.645C964.346 586.446 962.722 590.161 961.545 593.872L961.117 594.221Q959.476 593.005 957.798 591.839C958.701 589.75 959.681 587.438 959.767 585.136C960.173 574.369 942.907 560.072 935.686 552.447Z"/>
	<path fill="#47A8E3" transform="scale(0.332031 0.332031)" d="M489.511 423.209L496.269 425.105C500.953 438.7 505.287 452.568 510.468 465.976C507.635 464.843 504.72 463.865 501.851 462.822C498.896 449.523 493.806 436.163 489.511 423.209Z"/>
	<path fill="#FDFDFC" transform="scale(0.332031 0.332031)" d="M495.147 477.378C498.125 476.36 504.061 478.38 507.145 479.093C509.681 479.685 512.22 479.953 514.802 480.235C516.243 486.097 518.073 491.841 519.858 497.604C517.936 498.27 515.468 497.34 513.541 496.869C509.461 495.498 505.355 494.474 501.173 493.484C498.999 488.163 497.035 482.805 495.147 477.378Z"/>
	<path fill="#FDFDFC" transform="scale(0.332031 0.332031)" d="M471.08 401.971C474.434 401.168 480.9 404.145 484.117 405.23C486.012 405.586 487.871 405.999 489.808 405.979Q493.314 415.449 496.269 425.105L489.511 423.209C485.163 421.85 480.904 420.345 476.64 418.743C474.453 413.266 472.809 407.604 471.08 401.971Z"/>
	<path fill="#175AA5" transform="scale(0.332031 0.332031)" d="M501.173 493.484C505.355 494.474 509.461 495.498 513.541 496.869C517.253 504.868 518.766 518.699 521.635 527.929C518.135 527.276 514.699 526.407 511.248 525.536C509.649 521.827 508.799 517.43 507.655 513.54Q504.702 503.419 501.173 493.484Z"/>
	<path fill="#FDFDFC" transform="scale(0.332031 0.332031)" d="M588.526 548.299C592.913 549.445 597.738 552.171 602.052 552.841C602.077 554.129 602.01 555.489 602.162 556.765L603.371 557.656C603.832 561.943 604.61 566.477 605.816 570.621L605.639 571.857C602.06 574.422 596.803 575.669 592.65 577.009C591.915 570.325 590.311 562.818 588.575 556.33L588.502 552.404L588.42 552.092L588.526 548.299Z"/>
	<defs>
		<linearGradient id="gradient_3" gradientUnits="userSpaceOnUse" x1="598.94885" y1="556.8584" x2="591.72736" y2="548.88794">
			<stop offset="0" stop-color="#7A788E"/>
			<stop offset="1" stop-color="#9A8FAA"/>
		</linearGradient>
	</defs>
	<path fill="url(#gradient_3)" transform="scale(0.332031 0.332031)" d="M588.526 548.299C592.913 549.445 597.738 552.171 602.052 552.841C602.077 554.129 602.01 555.489 602.162 556.765C597.536 555.618 593.17 553.536 588.502 552.404L588.42 552.092L588.526 548.299Z"/>
	<path fill="#98BEC3" transform="scale(0.332031 0.332031)" d="M766.483 663.826C767.122 665.962 767.691 668.237 768.581 670.281C769.249 671.814 770.387 673.249 772.009 673.792C772.793 674.054 773.587 674.267 774.371 674.548C776.31 677.373 775.123 710.525 775.073 716.51Q770.753 716.337 766.43 716.252C766.66 698.776 766.111 681.301 766.483 663.826Z"/>
	<path fill="#175AA5" transform="scale(0.332031 0.332031)" d="M460.05 365.131C463.435 367.024 468.125 366.872 471.076 368.875C473.825 376.474 480.173 400.09 484.117 405.23C480.9 404.145 474.434 401.168 471.08 401.971C467.663 391.759 460.556 375.219 460.05 365.131Z"/>
	<path fill="#98BEC3" transform="scale(0.332031 0.332031)" d="M867.592 666.217C868.518 666.081 868.903 666.108 869.791 666.273C870.795 668.445 870.444 711.768 869.723 715.916C867.871 716.811 865.891 716.661 863.875 716.702C862.779 716.669 862.512 716.876 861.642 716.144C861.148 710.067 861.489 703.861 861.497 697.761L861.467 666.633L867.592 666.217Z"/>
	<path fill="#FDFDFC" transform="scale(0.332031 0.332031)" d="M698.994 462.955C699.129 459.193 699.452 456.111 702.349 453.379C704.855 451.015 708.391 450.059 711.718 449.58C716.114 451.018 719.8 452.759 722.003 457.121C723.508 460.101 723.827 464.094 722.668 467.247Q722.515 467.652 722.323 468.041Q722.13 468.429 721.901 468.797Q721.672 469.164 721.408 469.508Q721.144 469.851 720.848 470.167Q720.551 470.483 720.225 470.769Q719.899 471.054 719.547 471.306Q719.195 471.559 718.82 471.775Q718.445 471.992 718.05 472.171C716.845 472.707 715.812 472.847 714.508 472.861C710.832 472.188 706.032 471.838 702.863 469.784C700.386 468.179 699.599 465.699 698.994 462.955Z"/>
	<path fill="#BFC0C1" transform="scale(0.332031 0.332031)" d="M698.994 462.955C703.611 464.789 709.628 464.7 714.562 465.836L714.508 472.861C710.832 472.188 706.032 471.838 702.863 469.784C700.386 468.179 699.599 465.699 698.994 462.955Z"/>
	<path fill="#175AA5" transform="scale(0.332031 0.332031)" d="M476.64 418.743C480.904 420.345 485.163 421.85 489.511 423.209C493.806 436.163 498.896 449.523 501.851 462.822C497.846 461.445 493.916 459.814 489.728 459.079C487.555 453.193 485.788 447.089 483.806 441.132C481.339 433.719 478.63 426.302 476.64 418.743Z"/>
	<path fill="#BA7528" transform="scale(0.332031 0.332031)" d="M687.078 145.255C686.067 147.959 686.749 149.565 687.998 152.151C689.186 154.611 690.752 157.118 692.801 158.94C702.482 179.515 710.843 200.507 719.786 221.382C724.481 232.338 729.626 243.081 734.469 253.967C732.642 254.024 730.825 254.334 729.014 254.574C726.725 245.858 722.379 237.989 718.869 229.74L696.708 177.122Q691.95 166.224 687.353 155.258C686.458 153.117 685.126 150.85 684.441 148.678C684.245 148.058 684.257 147.471 684.265 146.831C685.131 145.629 685.692 145.677 687.078 145.255Z"/>
	<path fill="#DBAF79" transform="scale(0.332031 0.332031)" d="M689.918 143.657C692.553 146.214 737.718 250.112 737.869 252.059C737.914 252.642 737.816 252.92 737.695 253.445C736.567 254.125 735.754 253.945 734.469 253.967C729.626 243.081 724.481 232.338 719.786 221.382C710.843 200.507 702.482 179.515 692.801 158.94C690.752 157.118 689.186 154.611 687.998 152.151C686.749 149.565 686.067 147.959 687.078 145.255L689.918 143.657Z"/>
	<path fill="#DE912A" transform="scale(0.332031 0.332031)" d="M689.918 143.657C688.567 146.717 689.336 148.747 690.486 151.727C691.44 154.196 692.408 156.272 692.801 158.94C690.752 157.118 689.186 154.611 687.998 152.151C686.749 149.565 686.067 147.959 687.078 145.255L689.918 143.657Z"/>
	<path fill="#DE912A" transform="scale(0.332031 0.332031)" d="M675.631 141.904C675.696 141.929 675.773 141.933 675.826 141.978C676.797 142.806 676.588 143.019 676.743 144.176C676.137 146.06 674.079 147.291 672.552 148.433C665.019 154.064 656.96 159.064 649.211 164.399L616.624 187.144C596.906 200.741 577.638 214.997 558.06 228.788C557.275 227.364 556.64 225.825 555.959 224.347C563.251 220.152 570.034 214.876 576.918 210.041L605.719 190.219L644.561 163.53C654.981 156.487 665.778 149.732 675.631 141.904Z"/>
	<path fill="#7ECDF8" transform="scale(0.332031 0.332031)" d="M918.674 395.988C947.335 415.195 978.681 441.832 985.766 477.264C990.611 501.489 981.421 524.731 969.708 545.508C969.39 545.136 968.978 544.827 968.754 544.392C967.542 542.025 972.537 532.906 973.669 530.24C980.767 513.528 986.026 498.058 982.802 479.605C978.939 457.491 968.505 444.455 952.982 429.217C947.834 424.164 942.937 418.986 936.989 414.833C930.879 408.874 923.857 403.782 917.647 397.879L918.674 395.988Z"/>
	<path fill="#F8C94F" transform="scale(0.332031 0.332031)" d="M472.987 548.148C486.596 546.371 499.742 544.463 513.464 543.491L518.81 558.411L518.372 558.944C503.059 559.369 487.405 560.438 472.436 563.897C472.487 558.648 472.759 553.392 472.987 548.148Z"/>
	<path fill="#3077AC" transform="scale(0.332031 0.332031)" d="M908.296 571.244L909.787 571.037C910.682 572.703 908.31 577.042 908.835 579.495C909.41 582.181 914.065 584.013 916.239 585.52C917.285 587.388 916.3 588.652 916.551 590.536C917.135 594.908 923.875 593.527 926.379 595.423C926.379 595.652 926.377 595.881 926.379 596.11C926.414 599.226 926.962 601.882 929.358 604.066C932.844 607.244 937.957 606.748 942.285 606.504C945.621 608.538 947.825 613.214 951.511 613.978C951.654 614.008 951.799 614.03 951.942 614.056L952.533 614.948L952.532 614.726L952.224 614.508C950.958 615.862 947.388 615.692 945.482 615.9C935.721 617.684 925.499 618.196 915.614 619.108L898.846 572.04C901.975 571.66 905.153 571.492 908.296 571.244Z"/>
	<path fill="#CCECDC" transform="scale(0.332031 0.332031)" d="M497.419 494.555C499.448 501.593 502.128 508.475 504.458 515.422C507.129 523.381 509.507 531.456 511.984 539.478C499.501 539.627 485.796 540.95 473.604 543.624C475.598 538.924 476.706 533.506 478.328 528.633C481.675 518.582 488.877 501.214 497.419 494.555Z"/>
	<path fill="#BFC0C1" transform="scale(0.332031 0.332031)" d="M831.52 253.291C833.149 253.085 834.523 252.776 836.085 253.457C837.46 254.843 837.71 257.28 838.154 259.132C831.082 259.914 823.796 260.025 816.685 260.477Q794.059 262.02 771.406 263.082L670.878 268.148C669.239 268.367 667.769 268.727 666.191 268.061C664.706 266.692 664.424 264.097 663.951 262.184Q747.769 258.364 831.52 253.291Z"/>
	<path fill="#F8C94F" transform="scale(0.332031 0.332031)" d="M421.22 568.22C427.9 572.32 434.589 575.73 441.999 578.367C481.248 592.336 544.319 592.935 584.926 583.291Q588.96 582.363 592.863 580.985L593.665 586.063C593.399 586.161 593.134 586.263 592.866 586.358C551.554 600.9 487.164 599.264 445.263 586.62C437.029 584.135 429.205 580.836 421.501 577.046C421.341 574.108 421.121 571.163 421.22 568.22Z"/>
	<path fill="#98BEC3" transform="scale(0.332031 0.332031)" d="M871.384 733.978C877.576 733.756 884.406 734.078 890.121 731.374C900.444 742.612 910.162 761.797 909.436 777.444C909.348 779.33 909.052 781.258 908.737 783.118Q892.851 783.404 876.962 783.48C877.169 781.071 877.88 778.602 878.193 776.18C879.132 768.914 878.861 762.025 877.568 754.813C876.512 748.924 871.02 739.01 871.384 733.978Z"/>
	<path fill="#3077AC" transform="scale(0.332031 0.332031)" d="M925.253 518.709L926.243 518.779C929.117 521.237 934.721 543.141 935.963 547.452C929.584 547.921 923.814 545.543 917.418 547.587C914.237 548.603 911.191 550.407 909.726 553.529C908.008 557.192 908.609 561.634 909.997 565.266C906.184 565.807 901.118 566.95 897.327 566.385C896.368 566.243 896.512 566.115 895.968 565.396C891.229 550.703 886.008 535.897 879.696 521.805Q902.413 519.355 925.253 518.709Z"/>
	<path fill="#3077AC" transform="scale(0.332031 0.332031)" d="M890.692 381.484C895.841 383.799 900.585 388.209 905.079 391.625C907.9 391.415 914.54 395.33 916.815 397.189C916.989 397.331 917.167 397.469 917.341 397.613C917.445 397.699 917.545 397.79 917.647 397.879C923.857 403.782 930.879 408.874 936.989 414.833C942.937 418.986 947.834 424.164 952.982 429.217C968.505 444.455 978.939 457.491 982.802 479.605C986.026 498.058 980.767 513.528 973.669 530.24C972.537 532.906 967.542 542.025 968.754 544.392C968.978 544.827 969.39 545.136 969.708 545.508C968.435 549.995 962.381 558.378 959.796 562.646C957.79 559.979 955.774 557.557 953.397 555.214C961.029 544.735 969.389 527.738 973.376 515.482C979.138 497.771 978.583 479.934 970.094 463.272C966.157 455.542 961.16 448.589 955.311 442.193C946.173 432.201 908.004 400.443 896.483 396.717C894.432 391.698 892.698 386.529 890.692 381.484Z"/>
	<defs>
		<linearGradient id="gradient_4" gradientUnits="userSpaceOnUse" x1="929.67297" y1="413.86832" x2="913.14288" y2="393.27954">
			<stop offset="0" stop-color="#308CA8"/>
			<stop offset="1" stop-color="#2CADE1"/>
		</linearGradient>
	</defs>
	<path fill="url(#gradient_4)" transform="scale(0.332031 0.332031)" d="M905.079 391.625C907.9 391.415 914.54 395.33 916.815 397.189C916.989 397.331 917.167 397.469 917.341 397.613C917.445 397.699 917.545 397.79 917.647 397.879C923.857 403.782 930.879 408.874 936.989 414.833C924.374 410.952 914.376 400.656 905.079 391.625Z"/>
	<path fill="#F5E2BF" transform="scale(0.332031 0.332031)" d="M473.428 426.698L474.29 426.703C477.344 429.193 486.017 460.532 487.785 466.249C472.511 463.892 457.265 461.222 442.323 457.236C433.728 454.987 425.244 451.939 419.09 445.309C419.246 445.103 419.398 444.895 419.555 444.69C428.675 432.821 458.733 428.601 473.428 426.698Z"/>
	<defs>
		<linearGradient id="gradient_5" gradientUnits="userSpaceOnUse" x1="517.72351" y1="813.58447" x2="531.66449" y2="862.56171">
			<stop offset="0" stop-color="#B8C1C8"/>
			<stop offset="1" stop-color="#FEFBF5"/>
		</linearGradient>
	</defs>
	<path fill="url(#gradient_5)" transform="scale(0.332031 0.332031)" d="M535.067 845.654C557.811 845.324 586.994 838.237 606.009 826.002C603.983 830.833 601.416 834.865 597.619 838.476C579.214 855.979 540.771 859.929 515.975 859.465C495.987 859.091 476.04 856.09 457.7 847.859C453.99 846.194 449.645 844.265 446.785 841.302C446.782 841.202 446.789 841.1 446.776 841C446.629 839.799 445.476 839.045 444.637 838.287C443.957 837.673 444.075 837.461 443.902 836.591C444.126 836.028 444.161 835.502 444.724 835.196C445.828 834.597 446.893 834.527 448.064 834.928C449.129 835.292 448.655 835.272 449.817 835.261C450.055 835.259 450.292 835.232 450.53 835.217C454.788 836.601 459.094 837.878 463.33 839.327C486.863 844.856 510.891 847.422 535.067 845.654Z"/>
	<path fill="#BFC0C1" transform="scale(0.332031 0.332031)" d="M463.33 839.327C486.863 844.856 510.891 847.422 535.067 845.654L534.698 846.913C531.154 848.248 526.544 848.155 522.756 848.358C507.084 849.197 482.694 849.113 467.917 843.702C465.474 842.807 464.43 841.628 463.33 839.327Z"/>
	<path fill="#5388AB" transform="scale(0.332031 0.332031)" d="M708.883 476.363C712.505 476.98 715.601 477.499 719.24 476.6C723.523 508.762 716.816 543.845 700.449 571.927C684.857 598.679 660.41 618.488 630.33 626.427C626.866 627.234 623.206 627.611 619.685 628.149L619.547 616.655C641.123 614.117 662.307 602.849 676.665 586.597C703.754 555.937 711.265 516.01 708.883 476.363Z"/>
	<path fill="#3077AC" transform="scale(0.332031 0.332031)" d="M720.477 277.75L728.651 277.251C734.524 291.995 739.06 307.26 744.996 322C732.373 323.649 719.107 324.207 706.376 324.595C703.957 324.484 701.172 325.012 698.725 325.225C695.926 319.648 694.022 313.141 691.987 307.245C688.904 298.31 685.607 289.321 683.285 280.153C695.509 278.602 708.164 278.42 720.477 277.75Z"/>
	<path fill="#3077AC" transform="scale(0.332031 0.332031)" d="M765.058 376.813L765.717 376.991C768.303 380.926 770.323 389.442 772.053 394.219Q777.097 407.848 782.299 421.418C766.431 421.913 750.336 422.62 734.515 423.978L732.946 423.747C730 419.603 719.98 387.257 717.564 380.426C733.38 379.309 749.238 377.686 765.058 376.813Z"/>
	<path fill="#3077AC" transform="scale(0.332031 0.332031)" d="M700.353 330.161C708.376 329.413 740.917 325.977 746.758 327.544C748.812 331.001 750.099 335.056 751.543 338.798C755.788 349.798 759.184 361.833 764.433 372.343L764.666 372.797Q748.081 374.11 731.479 375.183C727.041 375.469 721.814 376.354 717.444 375.83C713.708 372.715 702.988 337.619 700.353 330.161Z"/>
	<path fill="#3077AC" transform="scale(0.332031 0.332031)" d="M734.477 429.55C741.265 428.486 748.375 428.323 755.234 427.903Q769.426 426.966 783.634 426.314C785.748 433.021 799.64 465.919 799.337 469.163C799.271 469.86 798.257 470.212 797.714 470.565C790.826 471.55 773.536 473.262 767.085 472.834C761.901 471.361 755.852 473.837 750.465 472.752C747.558 469.877 736.866 436.278 734.477 429.55Z"/>
	<path fill="#3077AC" transform="scale(0.332031 0.332031)" d="M769.463 530.382C785.189 529.88 800.858 527.605 816.58 527.048C819.21 526.955 819.969 527.076 821.891 528.877Q830.117 550.76 837.991 572.772C820.685 574.218 803.017 574.981 785.809 577.141C783.35 571.512 781.543 565.439 779.51 559.632Q774.309 545.068 769.463 530.382Z"/>
	<path fill="#3077AC" transform="scale(0.332031 0.332031)" d="M751.465 478.63C767.971 476.218 784.916 476.74 801.442 474.398Q803.625 479.984 805.929 485.522L806.459 485.691C811.84 497.477 815.159 510.399 819.914 522.483C809.192 522.933 798.454 523.973 787.754 524.801C781.375 525.294 774.359 525.288 768.124 526.623C766.132 522.453 764.762 517.783 763.23 513.408C759.184 501.851 755.703 490.125 751.465 478.63Z"/>
	<path fill="#3077AC" transform="scale(0.332031 0.332031)" d="M787.903 582.295C804.899 581.114 821.689 579.337 838.61 577.413C840.646 581.609 842.109 586.251 843.959 590.555L844.496 590.654C849.433 601.509 853.043 613.455 857.053 624.709Q830.532 627.256 803.962 629.234C798.206 613.81 793.202 597.898 787.903 582.295Z"/>
	<path fill="#527680" transform="scale(0.332031 0.332031)" d="M836.812 733.488C847.428 733.785 861.064 732.498 871.127 733.924L871.384 733.978C871.02 739.01 876.512 748.924 877.568 754.813C878.861 762.025 879.132 768.914 878.193 776.18C877.88 778.602 877.169 781.071 876.962 783.48L857.86 783.541L819.971 783.652C820.434 776.179 819.96 770.036 818.038 762.785C821.363 752.535 827.961 740.029 836.812 733.488Z"/>
	<path fill="#6A8B92" transform="scale(0.332031 0.332031)" d="M871.127 733.924L871.384 733.978C871.02 739.01 876.512 748.924 877.568 754.813C878.861 762.025 879.132 768.914 878.193 776.18C877.88 778.602 877.169 781.071 876.962 783.48L857.86 783.541C863.108 768.302 864.182 750.218 863.61 734.138C866.149 734.187 868.595 734.156 871.127 733.924Z"/>
	<path fill="#F8C94F" transform="scale(0.332031 0.332031)" d="M539.161 547.032C555.355 549.761 572.871 551.483 588.575 556.33C590.311 562.818 591.915 570.325 592.65 577.009C585.154 579.211 577.671 581.215 569.954 582.499C542.003 587.149 503.856 586.648 475.981 582.292C458.318 579.442 437.997 574.584 423.113 564.471C435.639 554.482 453.384 551.685 468.703 548.74C467.983 557.712 467.987 566.399 473.276 574.131C473.853 571.551 473.334 569.528 472.695 567.023L472.436 563.897C487.405 560.438 503.059 559.369 518.372 558.944C518.344 560.276 518.259 560.904 517.543 562.037C516.371 562.774 515.538 563.104 514.219 563.419C513.732 565.608 513.218 567.377 514.481 569.413C515.823 571.577 518.723 572.524 521.005 573.3C530.615 574.401 534.044 575.173 543.679 572.067C547.531 571.814 550.737 569.35 553.506 566.893C560.539 567.912 566.954 569.537 574.113 569.672L575.609 570.307L576.357 569.899C576.298 568.619 575.964 567.861 575.223 566.849C568.335 557.439 552.685 556.891 542.026 555.328L539.161 547.032Z"/>
	<path transform="scale(0.332031 0.332031)" d="M518.372 558.944C518.344 560.276 518.259 560.904 517.543 562.037C516.371 562.774 515.538 563.104 514.219 563.419C504.338 564.063 493.664 563.409 483.998 565.266C488.341 568.249 493.511 570.904 498.653 572.166L498.353 572.545L498.559 571.767L497.775 572.59C489.157 570.747 481.85 566.308 472.695 567.023L472.436 563.897C487.405 560.438 503.059 559.369 518.372 558.944Z"/>
	<path fill="#3077AC" transform="scale(0.332031 0.332031)" d="M660.184 265.851C663.465 270.374 671.011 296.43 673.412 303.263C677.476 314.827 681.96 326.246 685.956 337.834C698.931 375.461 711.108 413.448 725.105 450.715C720.997 447.748 717.215 446.367 712.344 445.31C708.249 445.895 704.48 446.7 700.755 448.564C696.949 435.591 691.953 422.86 687.483 410.102Q672.646 368.401 658.295 326.532C654.184 314.262 648.587 301.621 646.093 288.95C650.304 281.08 655.357 273.359 660.184 265.851Z"/>
	<path fill="#F5E2BF" transform="scale(0.332031 0.332031)" d="M515.813 424.721C541.304 423.552 578.77 426.911 602.175 437.129C606.453 438.997 612.793 441.866 614.4 446.589C615.043 448.478 614.727 450.679 613.801 452.42C610.499 458.62 600.597 461.254 594.399 463.123Q584.634 465.276 574.741 466.723Q564.847 468.171 554.875 468.906Q544.903 469.641 534.904 469.66Q524.905 469.679 514.93 468.982L500.496 425.483C505.57 424.993 510.719 424.93 515.813 424.721Z"/>
	<path fill="#3077AC" transform="scale(0.332031 0.332031)" d="M728.318 461.443C729.771 463.252 731.543 471.978 732.38 474.606C736.031 486.069 740.417 497.38 744.454 508.719L774.736 596.396C779.937 611.483 786.152 626.31 790.387 641.711C785.748 647.18 781.808 653.566 778.075 659.681C776.473 662.351 774.783 664.937 773.045 667.519Q766.206 645.115 758.807 622.889C752.02 602.854 744.707 583.017 737.996 562.946C733.243 548.729 726.481 533.835 724.032 519.051C722.942 512.468 724.773 505.833 724.91 499.222C725.081 491.001 724.102 482.701 723.364 474.526C725.799 470.071 727.353 466.445 728.318 461.443Z"/>
	<path fill="#527680" transform="scale(0.332031 0.332031)" d="M783.284 733.601L795.996 733.089C806.847 743.921 815.108 761.878 815.105 777.337C815.105 779.484 814.976 781.638 814.857 783.781C805.487 784.868 793.658 783.901 784.034 783.917L720.378 784.122Q720.25 782.978 720.184 781.829C719.086 763.926 730.016 746.136 741.49 733.308Q755.752 733.762 770.02 733.869Q776.655 733.875 783.284 733.601Z"/>
	<path fill="#6A8B92" transform="scale(0.332031 0.332031)" d="M770.02 733.869Q776.655 733.875 783.284 733.601L780.018 734.303C779.638 734.909 779.694 734.585 779.864 735.313C780.82 739.401 782.276 743.335 783.325 747.395C786.493 759.667 786.439 771.226 783.02 783.412C777.787 783.305 772.535 783.46 767.301 783.519C767.722 778.287 769.122 772.923 769.991 767.732C771.914 756.25 771.665 745.377 770.02 733.869Z"/>
	<path fill="#98BEC3" transform="scale(0.332031 0.332031)" d="M783.284 733.601L795.996 733.089C806.847 743.921 815.108 761.878 815.105 777.337C815.105 779.484 814.976 781.638 814.857 783.781C804.687 782.419 793.29 783.404 783.02 783.412C786.439 771.226 786.493 759.667 783.325 747.395C782.276 743.335 780.82 739.401 779.864 735.313C779.694 734.585 779.638 734.909 780.018 734.303L783.284 733.601Z"/>
	<path fill="#F8C94F" transform="scale(0.332031 0.332031)" d="M898.974 402.713C899.141 402.786 899.312 402.85 899.476 402.931C905.689 405.965 911.993 411.538 917.514 415.748C938.419 431.692 962.028 449.499 970.3 475.631C977.163 497.312 969.593 517.209 959.747 536.438C957.151 541.357 954.588 546.407 951.357 550.942C949.34 541.671 946.259 533.13 943.254 524.172C938.515 510.046 933.418 496.144 928.207 482.191L898.974 402.713Z"/>
	<path fill="#F8C94F" transform="scale(0.332031 0.332031)" d="M849.44 667.796L856.646 667.228Q857.38 691.654 857.223 716.091C854.73 716.54 852.192 717.166 849.804 718.018C833.148 723.958 822.893 740.364 815.633 755.569C812.615 748.466 808.804 742.15 804.68 735.664C797.647 725.923 789.909 719.814 778.251 716.794C777.956 702.409 778.299 687.953 778.342 673.561C802.067 672.53 825.759 669.587 849.44 667.796Z"/>
	<path fill="#5388AB" transform="scale(0.332031 0.332031)" d="M972.267 623.698C974.295 623.355 976.498 623.478 978.558 623.436C974.7 632.135 964.595 645.443 958.637 653.377L855.437 662.031C832.322 663.986 809.274 666.408 786.121 667.894L778.594 668.541C783.636 658.59 790.808 650.183 796.37 640.576C824.24 638.445 852.117 635.278 879.932 632.507L972.267 623.698Z"/>
	<path fill="#CCECDC" transform="scale(0.332031 0.332031)" d="M419.535 452.333C437.164 463.069 469.208 468.16 489.739 470.654C491.326 476.761 493.387 482.722 495.495 488.664L497.419 494.555C488.877 501.214 481.675 518.582 478.328 528.633C476.706 533.506 475.598 538.924 473.604 543.624C473.066 545.212 472.986 546.478 472.987 548.148C472.759 553.392 472.487 558.648 472.436 563.897L472.695 567.023C473.334 569.528 473.853 571.551 473.276 574.131C467.987 566.399 467.983 557.712 468.703 548.74C468.972 547.108 468.88 545.96 468.563 544.343C451.742 548.453 435.518 550.529 420.852 560.742C420.418 548.847 420.538 536.922 420.378 525.021L419.535 452.333Z"/>
	<path fill="#FDFDFC" transform="scale(0.332031 0.332031)" d="M442.972 476.743C443.765 477.481 444.014 478.12 444.343 479.127C447.576 489.022 453.71 506.113 451.767 516.536C450.789 521.785 448.177 526.61 445.807 531.335L445.49 531.756L444.722 531.857C444.337 531.382 444.004 530.98 443.744 530.42C435.602 512.895 436.83 494.632 442.972 476.743Z"/>
	<path fill="#FDFDFC" transform="scale(0.332031 0.332031)" d="M468.563 544.343C466.825 539.494 470.677 525.582 472.327 520.35C475.409 510.579 486.607 493.324 495.495 488.664L497.419 494.555C488.877 501.214 481.675 518.582 478.328 528.633C476.706 533.506 475.598 538.924 473.604 543.624C473.066 545.212 472.986 546.478 472.987 548.148C472.759 553.392 472.487 558.648 472.436 563.897L472.695 567.023C473.334 569.528 473.853 571.551 473.276 574.131C467.987 566.399 467.983 557.712 468.703 548.74C468.972 547.108 468.88 545.96 468.563 544.343Z"/>
	<path fill="#CCECDC" transform="scale(0.332031 0.332031)" d="M516.262 473.087C540.545 473.907 596.769 473.925 615.336 457.193C615.479 492.134 616.237 527.206 615.376 562.132C611.961 557.947 607.423 554.099 602.052 552.841C597.738 552.171 592.913 549.445 588.526 548.299L588.134 547.698C570.921 542.77 554.237 539.968 536.367 538.922C532.658 526.723 529.139 514.456 525.335 502.289C522.288 492.545 518.967 482.936 516.262 473.087Z"/>
	<path fill="#FDFDFC" transform="scale(0.332031 0.332031)" d="M588.134 547.698C586.573 534.259 575.867 492.379 583.997 481.912C584.989 480.635 585.951 480.378 587.493 480.209C590.015 481.082 591.257 482.826 592.368 485.203C593.757 488.173 594.788 491.713 595.481 494.906C597.367 503.586 603.654 545.227 602.052 552.841C597.738 552.171 592.913 549.445 588.526 548.299L588.134 547.698Z"/>
	<path fill="#F46703" transform="scale(0.332031 0.332031)" d="M421.894 600.661C422.525 601.326 423.034 601.877 423.296 602.778C424.649 607.428 424.658 613.081 425.401 617.913C427.534 631.782 429.615 645.771 432.432 659.516C442.368 707.981 461.772 759.787 500.705 792.375C517.792 806.677 538.823 815.936 561.284 816.568C575.674 816.974 588.444 813.565 601.55 807.926C605.515 806.22 609.321 804.131 613.364 802.619C610.768 808.757 608.19 815.878 603.44 820.704C588.494 835.89 541.622 840.932 520.218 841C493.96 841.083 451.356 836.62 432.272 817.367C427.815 812.871 424.597 807.343 423.538 801.038C422.242 793.323 423.028 784.596 423.039 776.765L422.891 734.744C422.671 690.076 421.369 645.32 421.894 600.661Z"/>
	<path fill="#FA8C06" transform="scale(0.332031 0.332031)" d="M527.733 304.255C520.891 310.352 502.924 312.41 494.075 312.017C479.179 311.355 465.997 304.984 456.014 293.937C445.169 281.937 438.727 266.411 439.693 250.103C440.648 233.987 447.573 218.448 459.837 207.768C471.852 197.304 486.208 192.162 502.096 193.303C518.148 194.676 533.897 202.082 544.386 214.5C554.151 226.061 559.359 242.062 557.995 257.167Q557.857 258.675 557.645 260.174Q557.433 261.674 557.148 263.161Q556.863 264.648 556.506 266.12Q556.149 267.591 555.72 269.044Q555.291 270.496 554.791 271.926Q554.292 273.355 553.723 274.759Q553.154 276.162 552.517 277.536Q551.881 278.91 551.177 280.251Q550.474 281.592 549.706 282.897Q548.938 284.202 548.107 285.468Q547.276 286.734 546.384 287.958Q545.492 289.182 544.541 290.36Q543.59 291.539 542.583 292.669Q541.576 293.8 540.514 294.88Q539.453 295.96 538.34 296.987Q537.227 298.014 536.065 298.985C533.47 301.133 530.805 302.85 527.733 304.255Z"/>
	<path transform="scale(0.332031 0.332031)" d="M468.811 236.599C472.412 236.316 476.694 237.002 479.704 239.108C482.556 241.104 484.373 244.216 484.931 247.634C485.222 249.417 485.287 251.45 484.218 252.985C483.033 252.305 482.757 247.951 482.189 246.48C480.769 242.792 478.212 240.911 474.672 239.439L474.063 239.191C473.895 239.171 473.728 239.146 473.56 239.132C469.78 238.798 466.188 239.205 463.279 241.88C461.049 243.931 460.107 246.713 459.947 249.672C459.88 250.906 459.77 251.966 459.5 253.171L458.688 253.615C457.693 253.083 457.065 252.534 456.658 251.434C455.933 249.473 457.279 246.877 458.226 245.222C460.815 240.693 463.787 237.965 468.811 236.599Z"/>
	<path transform="scale(0.332031 0.332031)" d="M527.088 237.108C528.485 237.014 529.852 236.971 531.246 237.146C534.567 237.563 537.733 239.096 539.774 241.807C541.546 244.16 542.769 247.604 542.214 250.569C542.015 251.63 542.036 251.745 541.137 252.398C539.042 250.358 539.589 245.431 537.257 242.716C535.152 240.264 532.539 239.576 529.443 239.295L528.769 239.24C526.713 239.42 524.662 239.733 522.83 240.736C517.756 243.514 518.148 248.176 516.566 252.887C516.227 253.898 516.301 254.006 515.298 254.473L514.359 254.03C514.166 253.582 514.034 253.347 513.975 252.821C513.616 249.595 515.746 244.803 517.496 242.179C519.762 238.78 523.268 237.895 527.088 237.108Z"/>
	<path fill="#FDFDFC" transform="scale(0.332031 0.332031)" d="M502.096 193.303C518.148 194.676 533.897 202.082 544.386 214.5C554.151 226.061 559.359 242.062 557.995 257.167Q557.857 258.675 557.645 260.174Q557.433 261.674 557.148 263.161Q556.863 264.648 556.506 266.12Q556.149 267.591 555.72 269.044Q555.291 270.496 554.791 271.926Q554.292 273.355 553.723 274.759Q553.154 276.162 552.517 277.536Q551.881 278.91 551.177 280.251Q550.474 281.592 549.706 282.897Q548.938 284.202 548.107 285.468Q547.276 286.734 546.384 287.958Q545.492 289.182 544.541 290.36Q543.59 291.539 542.583 292.669Q541.576 293.8 540.514 294.88Q539.453 295.96 538.34 296.987Q537.227 298.014 536.065 298.985C533.47 301.133 530.805 302.85 527.733 304.255C528.883 302.289 531.865 300.257 533.552 298.634C541.09 291.383 546.637 283.939 550.308 274.048Q550.833 272.671 551.288 271.269Q551.743 269.867 552.128 268.444Q552.513 267.022 552.827 265.582Q553.14 264.141 553.382 262.687Q553.624 261.234 553.793 259.769Q553.962 258.305 554.057 256.834Q554.153 255.364 554.176 253.89Q554.198 252.416 554.148 250.943Q554.097 249.47 553.973 248.002Q553.849 246.533 553.652 245.072Q553.455 243.612 553.185 242.163Q552.916 240.714 552.574 239.28Q552.233 237.846 551.821 236.431Q551.409 235.016 550.927 233.623Q550.445 232.23 549.894 230.863Q549.343 229.496 548.725 228.158C541.488 212.587 527.662 201.662 511.31 196.647C507.067 195.346 502.445 195.304 498.32 193.801C499.606 193.31 500.738 193.353 502.096 193.303Z"/>
	<path transform="scale(0.332031 0.332031)" d="M475.468 261.714C479.468 262.529 478.376 271.51 489.003 275.57C497.391 278.775 514.959 278.537 521.591 271.745C523.588 269.7 525.299 264.619 527.711 263.526L528.533 264.218C529.132 267.28 526.931 271.078 525.723 273.835C522.489 279.202 518.44 284.868 512.937 288.095C508.321 290.802 502.96 291.551 497.81 290.038C489.429 287.577 481.963 279.737 477.933 272.199C476.305 269.154 474.417 265.135 475.468 261.714Z"/>
	<path fill="#F8C94F" transform="scale(0.332031 0.332031)" d="M518.729 277.527L519.188 277.609L519.18 278.302C515.494 282.757 511.351 286.811 505.361 287.672C499.987 288.445 495.496 286.675 491.227 283.55C489.54 281.817 487.95 279.973 486.327 278.18C497.114 282.401 507.99 281.575 518.729 277.527Z"/>
	<path fill="#FA8C06" transform="scale(0.332031 0.332031)" d="M609.471 577.85L613.696 576.942C615.135 575.492 614.952 573.225 615.195 571.217C615.857 614.448 615.321 657.754 615.615 701Q615.965 731.36 615.895 761.721C615.884 772.308 616.203 783.046 615.542 793.606C615.36 796.531 615.2 800.194 613.364 802.619C609.321 804.131 605.515 806.22 601.55 807.926C588.444 813.565 575.674 816.974 561.284 816.568C538.823 815.936 517.792 806.677 500.705 792.375C461.772 759.787 442.368 707.981 432.432 659.516C429.615 645.771 427.534 631.782 425.401 617.913C424.658 613.081 424.649 607.428 423.296 602.778C423.034 601.877 422.525 601.326 421.894 600.661L421.501 577.046C429.205 580.836 437.029 584.135 445.263 586.62C487.164 599.264 551.554 600.9 592.866 586.358C593.134 586.263 593.399 586.161 593.665 586.063L592.863 580.985C597.597 578.729 602.595 576.984 607.367 574.778L609.471 577.85Z"/>
	<path fill="#FDFDFC" transform="scale(0.332031 0.332031)" d="M598.561 764.483C599.514 764.433 600.599 764.31 601.543 764.434C603.054 764.632 604.357 765.551 605.234 766.772C608.446 771.249 607.775 781.106 606.757 786.307C606.13 789.514 605.296 790.867 602.62 792.717C602.002 792.819 601.373 792.94 600.742 792.935Q600.455 792.933 600.169 792.901Q599.884 792.869 599.603 792.809Q599.323 792.748 599.05 792.659Q598.777 792.57 598.514 792.453Q598.252 792.336 598.003 792.193Q597.753 792.051 597.52 791.883Q597.287 791.716 597.072 791.525Q596.857 791.334 596.663 791.123C593.287 787.395 594.15 778.782 594.508 774.144C594.835 769.915 595.261 767.282 598.561 764.483Z"/>
	<path fill="#F8C94F" transform="scale(0.332031 0.332031)" d="M474.891 641.097C479.232 640.599 483.393 640.744 487.376 642.739C492.185 645.148 495.62 649.569 497.29 654.631C499.097 660.11 499.001 666.282 496.342 671.469C493.572 676.876 489.211 679.73 483.58 681.492C478.493 681.924 473.766 681.393 469.31 678.724C464.558 675.878 461.32 671.385 460.018 666.014C458.697 660.567 459.2 654.353 462.218 649.539C465.15 644.861 469.637 642.343 474.891 641.097Z"/>
	<path transform="scale(0.332031 0.332031)" d="M476.729 648.576C480.168 648.354 483.578 648.257 486.779 649.707C490.514 651.4 493.327 654.586 494.723 658.427C496.037 662.047 495.98 666.134 494.284 669.622C492.313 673.673 488.818 675.897 484.718 677.385C481.092 677.957 477.694 678.22 474.224 676.707C470.646 675.147 468.042 672.16 466.776 668.487C465.393 664.475 465.525 659.764 467.418 655.935C469.455 651.818 472.487 649.936 476.729 648.576Z"/>
	<path fill="#FDFDFC" transform="scale(0.332031 0.332031)" d="M473.953 654.418C475.416 654.725 477.072 655.157 478.161 656.26C479.003 657.112 479.468 658.364 479.324 659.561C479.079 661.596 477.7 663.041 476.289 664.382C474.876 664.298 473.49 664.232 472.268 663.412C471.287 662.754 470.588 661.75 470.519 660.546C470.366 657.906 472.186 656.084 473.953 654.418Z"/>
	<path fill="#F8C94F" transform="scale(0.332031 0.332031)" d="M553.212 640.617C557.093 640.369 560.674 640.494 564.38 641.86Q564.882 642.042 565.375 642.249Q565.867 642.457 566.348 642.689Q566.829 642.922 567.297 643.179Q567.765 643.436 568.22 643.717Q568.674 643.998 569.113 644.302Q569.553 644.606 569.976 644.933Q570.399 645.259 570.804 645.607Q571.21 645.954 571.597 646.323Q571.984 646.691 572.352 647.079Q572.719 647.466 573.066 647.872Q573.413 648.279 573.739 648.702Q574.064 649.126 574.368 649.566Q574.671 650.005 574.951 650.46Q575.231 650.915 575.488 651.384Q575.744 651.853 575.976 652.334Q576.207 652.815 576.414 653.308C578.65 658.623 578.769 664.866 576.444 670.171C573.82 676.159 569.381 679.364 563.544 681.755C559.98 682.283 556.537 682.03 553.164 680.709C547.319 678.419 542.256 673.312 539.931 667.491C537.865 662.317 537.896 656.311 540.311 651.26C542.962 645.717 547.571 642.559 553.212 640.617Z"/>
	<path transform="scale(0.332031 0.332031)" d="M557.291 648.092C560.187 647.842 563.075 648.133 565.783 649.228Q566.465 649.497 567.116 649.835Q567.766 650.172 568.379 650.575Q568.992 650.978 569.56 651.441Q570.128 651.905 570.645 652.424Q571.162 652.943 571.624 653.513Q572.085 654.083 572.486 654.697Q572.886 655.311 573.221 655.963Q573.556 656.615 573.823 657.298Q574.084 657.986 574.276 658.696Q574.469 659.407 574.591 660.132Q574.713 660.858 574.764 661.592Q574.815 662.326 574.794 663.062Q574.773 663.797 574.68 664.528Q574.587 665.258 574.424 665.975Q574.26 666.693 574.027 667.391Q573.795 668.089 573.495 668.761C571.454 673.401 567.726 676.081 563.129 677.871C559.784 678.603 556.756 678.507 553.619 676.993C550.069 675.28 547.454 672.025 546.257 668.297C544.928 664.16 545.146 659.432 547.168 655.55C549.423 651.223 552.796 649.423 557.291 648.092Z"/>
	<path fill="#FDFDFC" transform="scale(0.332031 0.332031)" d="M553.274 654.436C554.948 654.432 556.266 654.663 557.446 655.972C558.397 657.026 558.672 658.225 558.527 659.602C558.298 661.777 557.203 662.834 555.614 664.145C554.059 664.063 552.509 663.822 551.327 662.702C550.387 661.811 549.965 660.614 550.096 659.33C550.325 657.09 551.667 655.838 553.274 654.436Z"/>
	<path fill="#FDFDFC" transform="scale(0.332031 0.332031)" d="M607.367 574.778L609.471 577.85C609.341 578.054 609.197 578.25 609.08 578.462C608.554 579.416 609.467 600.354 609.47 603.224L610.174 688.924C610.204 696.599 611.265 712.357 609.577 719.308C608.871 722.215 606.555 724.966 603.771 726.093C602.034 726.796 600.221 726.908 598.51 726.041C595.995 724.768 594.081 721.851 593.359 719.186C591.799 713.429 592.763 695.767 592.759 688.764Q592.805 637.409 593.665 586.063L592.863 580.985C597.597 578.729 602.595 576.984 607.367 574.778Z"/>
	<path fill="#FDFDFC" transform="scale(0.332031 0.332031)" d="M668.649 273.605C676.006 272.119 683.824 272.259 691.31 271.788C708.802 270.688 726.216 269.923 743.725 269.245C776.035 267.994 808.351 265.668 840.637 263.848C846.564 275.491 850.643 288.731 855.357 300.967L886.008 382.536C901.152 423.09 916.706 463.427 930.995 504.301C936.135 519.002 942.171 533.777 946.346 548.77L938.776 546.543C936.235 536.622 933.257 527.094 929.815 517.45C912.598 518.207 895.106 519.061 877.991 521.097C884.503 536.434 890.253 551.999 896.031 567.619C899.99 567.238 908.924 565.213 912.436 567.05C912.618 568.191 912.755 567.748 912.131 568.671C911.294 569.91 910.116 570.457 908.661 570.659C905.467 571.101 900.759 569.255 897.931 570.485C897.553 571.586 897.496 571.905 897.836 573.073C898.902 576.74 900.96 580.48 902.278 584.144L915.155 620.085Q932.798 618.9 950.341 616.683C955.934 616.021 961.713 615.592 967.227 614.451C965.888 611.144 964.466 607.951 962.837 604.776C963.832 601.201 964.849 597.799 966.443 594.437Q971.661 606.166 975.746 618.337C956.538 620.98 937.009 622.549 917.699 624.305C880.214 627.714 842.617 630.638 805.176 634.436L803.962 629.234Q830.532 627.256 857.053 624.709C853.043 613.455 849.433 601.509 844.496 590.654C843.094 585.705 840.842 580.773 839.103 575.914L805.609 579.167C799.726 579.714 793.426 580.767 787.529 580.499C786.405 579.544 786.287 578.505 785.809 577.141C803.017 574.981 820.685 574.218 837.991 572.772Q830.117 550.76 821.891 528.877C821.461 527.845 821.043 526.961 820.408 526.039C815.88 524.458 778.981 530.052 769.541 529.326C768.544 528.582 768.51 527.77 768.124 526.623C774.359 525.288 781.375 525.294 787.754 524.801C798.454 523.973 809.192 522.933 819.914 522.483C815.159 510.399 811.84 497.477 806.459 485.691C805.211 481.561 803.558 477.587 801.953 473.587C794.594 474.45 755.021 477.984 750.625 477.304C749.744 476.298 749.6 475.797 749.461 474.474C750.715 473.393 764.363 473.017 767.085 472.834C773.536 473.262 790.826 471.55 797.714 470.565C798.933 470.548 799.792 470.578 800.927 470.069C800.603 466.425 798.044 461.43 796.784 457.919Q791 441.543 784.857 425.298C778.528 425.665 735.053 428.762 733.692 428.126C733.14 427.868 732.693 427.427 732.194 427.078C732.303 426.9 732.383 426.699 732.522 426.543C733.45 425.498 735.323 425.087 736.646 424.892C741.731 424.142 747.204 424.175 752.353 423.871Q767.962 422.987 783.56 421.92L772.903 393.652C770.727 387.848 768.114 381.897 766.662 375.876C751.605 376.478 736.522 378.093 721.478 379.016C719.276 379.151 717.634 379.047 715.98 377.579L716.074 376.754L717.444 375.83C721.814 376.354 727.041 375.469 731.479 375.183Q748.081 374.11 764.666 372.797L765.239 372.008C761.992 363.222 758.848 354.409 755.496 345.662C753 339.15 750.127 332.578 748.096 325.912L717.184 327.833C712.585 328.121 707.416 328.96 702.838 328.694C701.4 328.61 700.303 328.271 699.031 327.621L698.939 326.967C703.012 324.661 739.826 323.048 747.154 322.805C744.625 318.389 742.94 313.3 741.098 308.563C736.904 297.773 733.13 286.838 729.049 276.009C723.953 276.284 681.13 277.815 679.055 279.788C678.507 280.309 678.428 281.416 678.5 282.136C678.908 286.183 684.699 300.362 686.373 305.142L708.774 369.277Q739.576 460.583 771.95 551.343C781.792 579.306 790.987 607.54 801.789 635.153C798.973 635.388 796.132 635.56 793.328 635.905C784.83 609.677 775.361 583.815 766.44 557.732L698.672 360.481C688.754 331.542 677.67 302.816 668.649 273.605Z"/>
	<path transform="scale(0.332031 0.332031)" d="M822.901 371.907C840.075 370.463 857.395 369.84 874.612 368.942C878.321 376.862 881.233 385.395 884.429 393.551C887.108 400.39 890.672 407.68 892.302 414.813C891.527 414.65 890.059 414.605 889.628 413.896C889.562 413.787 889.315 412.847 889.304 412.808C888.134 408.708 886.188 404.665 884.607 400.702C880.595 390.645 876.243 380.375 873.453 369.915C857.074 371.084 840.491 372.155 824.085 372.702C827.369 381.314 838.057 412.904 841.92 418.19L840.642 417.841C838.062 413.63 836.502 407.787 834.724 403.11L822.901 371.907Z"/>
	<path transform="scale(0.332031 0.332031)" d="M803.689 322.881C809.813 322.209 816.119 322.163 822.277 321.85L856.111 320.063C858.479 325.03 872.511 363.047 873.328 363.684C874.134 364.313 874.491 363.7 875.489 364.752C874.014 365.728 871.734 365.548 869.956 365.682C868.968 359.384 865.988 352.64 863.811 346.648C860.745 338.208 857.756 329.801 855.154 321.205C838.421 322.196 821.685 322.499 804.96 323.718L816.56 352.196C818.617 357.222 821.037 362.344 822.62 367.536C833.952 367.966 856.581 363.954 865.574 365.882C850.979 366.353 836.382 367.736 821.797 368.517C815.788 353.274 810.117 337.967 803.689 322.881Z"/>
	<path transform="scale(0.332031 0.332031)" d="M840.843 421.247C858.425 420.277 875.969 418.667 893.569 417.969C899.333 432.264 903.459 447.407 909.958 461.375C902.237 462.706 894.187 463.105 886.367 463.601C892.239 461.401 900.985 461.815 907.295 461.442C900.693 447.828 897.23 432.875 891.312 418.953L842.713 422.117C845.911 430.12 848.93 438.197 852.165 446.184C854.746 452.556 857.826 458.93 859.634 465.56C863.611 464.786 867.645 464.311 871.704 464.359L871.821 464.853Q864.885 465.29 857.983 466.108C856.429 460.37 853.735 454.67 851.557 449.129Q846.123 435.218 840.843 421.247Z"/>
	<path transform="scale(0.332031 0.332031)" d="M859.032 469.223C876.207 468.495 893.458 466.755 910.609 465.471C917.3 481.247 922.282 497.696 927.966 513.852L916.832 514.57C919.515 513.856 921.837 513.67 924.592 513.631C919.516 497.858 914.364 481.913 908.583 466.386C898.477 467.633 888.217 468.066 878.058 468.761C872.303 469.155 866.437 469.965 860.675 469.988C866.637 485.492 872.292 501.114 878.363 516.573C883.073 516.104 912.835 513.644 915.099 514.421L914.603 514.996C902.363 514.589 889.702 516.956 877.439 517.555C871.288 501.454 865.664 485.138 859.032 469.223Z"/>
	<path fill="#3077AC" transform="scale(0.332031 0.332031)" d="M842.713 422.117L891.312 418.953C897.23 432.875 900.693 447.828 907.295 461.442C900.985 461.815 892.239 461.401 886.367 463.601C882.677 464.805 875.732 464.96 871.821 464.853L871.704 464.359C867.645 464.311 863.611 464.786 859.634 465.56C857.826 458.93 854.746 452.556 852.165 446.184C848.93 438.197 845.911 430.12 842.713 422.117Z"/>
	<path fill="#3077AC" transform="scale(0.332031 0.332031)" d="M804.96 323.718C821.685 322.499 838.421 322.196 855.154 321.205C857.756 329.801 860.745 338.208 863.811 346.648C865.988 352.64 868.968 359.384 869.956 365.682C868.495 365.801 867.037 366 865.574 365.882C856.581 363.954 833.952 367.966 822.62 367.536C821.037 362.344 818.617 357.222 816.56 352.196L804.96 323.718Z"/>
	<path fill="#3077AC" transform="scale(0.332031 0.332031)" d="M824.085 372.702C840.491 372.155 857.074 371.084 873.453 369.915C876.243 380.375 880.595 390.645 884.607 400.702C886.188 404.665 888.134 408.708 889.304 412.808C889.315 412.847 889.562 413.787 889.628 413.896C890.059 414.605 891.527 414.65 892.302 414.813C875.582 415.909 858.645 417.718 841.92 418.19C838.057 412.904 827.369 381.314 824.085 372.702Z"/>
	<path fill="#3077AC" transform="scale(0.332031 0.332031)" d="M860.675 469.988C866.437 469.965 872.303 469.155 878.058 468.761C888.217 468.066 898.477 467.633 908.583 466.386C914.364 481.913 919.516 497.858 924.592 513.631C921.837 513.67 919.515 513.856 916.832 514.57C916.027 514.806 915.45 514.957 914.603 514.996L915.099 514.421C912.835 513.644 883.073 516.104 878.363 516.573C872.292 501.114 866.637 485.492 860.675 469.988Z"/>
	<path fill="#3077AC" transform="scale(0.332031 0.332031)" d="M836.118 421.759L836.681 421.677C838.886 423.199 852.508 461.15 854.296 466.504C838.24 467.019 821.894 468.789 805.885 470.203L804.871 469.977C802.594 467.415 790.54 431.608 787.686 425.009C803.793 424.624 820.019 422.717 836.118 421.759Z"/>
	<path fill="#3077AC" transform="scale(0.332031 0.332031)" d="M794.025 323.287C796.062 323.069 798.134 322.996 800.178 322.858C806.369 338.078 812.084 353.598 817.869 368.98C803.11 370.244 788.274 371.047 773.498 372.151C771.931 372.354 770.333 372.452 768.758 372.594C762.69 356.951 757.251 341.038 750.982 325.483C765.31 325.108 779.701 323.977 794.025 323.287Z"/>
	<path fill="#3077AC" transform="scale(0.332031 0.332031)" d="M771.383 273.713C774.677 273.162 778.332 273.316 781.684 273.196C788.447 288.345 792.655 304.725 799.393 319.931Q779.628 320.908 759.877 322.146C756.546 322.454 753.198 322.517 749.856 322.626C744.541 306.858 737.504 291.732 732.719 275.758L771.383 273.713Z"/>
	<path fill="#3077AC" transform="scale(0.332031 0.332031)" d="M816.384 372.223L818.261 371.948C818.57 372.101 818.952 372.156 819.188 372.407C820.455 373.754 834.43 413.498 836.29 418.466C820.583 420.171 804.679 420.184 788.978 422.082L787.365 421.921C784.519 419.451 771.923 382.031 769.462 375.219C785.101 374.551 800.764 373.296 816.384 372.223Z"/>
	<path fill="#3077AC" transform="scale(0.332031 0.332031)" d="M867.664 521.789C869.812 521.532 871.996 521.441 874.155 521.286Q883.406 544.485 892.018 567.928C877.213 568.817 862.419 570.82 847.62 571.95C845.549 572.042 843.467 572.368 841.409 572.612C835.656 556.705 830.043 540.796 823.446 525.213C838.156 524.543 852.993 523.078 867.664 521.789Z"/>
	<path fill="#3077AC" transform="scale(0.332031 0.332031)" d="M854.047 469.761C854.699 469.651 854.292 469.657 855.239 470.022C856.784 474.77 858.915 479.474 860.695 484.154Q867.161 501 873.403 517.929C866.319 518.095 859.159 518.982 852.098 519.594C842.91 520.389 833.67 521.004 824.509 522.059L823.161 521.829C820.43 518.308 808.194 480.469 805.346 473.082C821.469 472.868 837.947 470.921 854.047 469.761Z"/>
	<path fill="#3077AC" transform="scale(0.332031 0.332031)" d="M785.252 272.986C795.148 272.326 805.065 272.045 814.969 271.538C822.223 271.167 829.6 270.416 836.856 270.466C842.981 280.378 850.788 304.825 855.162 316.826L848.708 316.994C844.623 318.037 839.459 317.822 835.215 318.081C824.271 318.747 813.314 319.141 802.393 320.139C798.637 307.905 793.037 296.243 789.314 284.044L785.252 272.986Z"/>
	<path transform="scale(0.332031 0.332031)" d="M785.252 272.986C795.148 272.326 805.065 272.045 814.969 271.538C822.223 271.167 829.6 270.416 836.856 270.466C842.981 280.378 850.788 304.825 855.162 316.826L848.708 316.994C847.624 316.835 846.809 316.806 845.746 317.046C845.415 317.12 845.086 317.201 844.757 317.279L844.4 315.714L844.196 316.647C846.983 316.773 849.745 316.554 852.524 316.367C846.244 301.946 841.945 285.829 834.86 271.94C818.837 271.753 802.577 273.281 786.552 274.011C787.589 277.073 789.341 280.83 789.314 284.044L785.252 272.986Z"/>
	<path fill="#3077AC" transform="scale(0.332031 0.332031)" d="M888.13 571.788C889.591 571.582 891.014 571.529 892.486 571.495C893.837 572.223 894.151 573.37 894.729 574.776C896.87 579.978 898.239 585.525 900.24 590.789C903.983 600.633 908.367 610.418 911.628 620.422C911.978 621.495 912.574 622.376 912.054 623.405C911.767 622.91 911.333 621.997 910.913 621.561C910.774 621.417 910.271 621.007 910.004 620.948C906.214 620.121 874.689 623.45 867.461 623.638C865.116 624.039 862.664 624.056 860.288 624.189C858.676 617.999 855.87 611.789 853.597 605.793Q847.858 590.711 842.401 575.524C857.615 574.87 872.951 573.145 888.13 571.788Z"/>
</svg>
